<svg id="amusement-park-15" xmlns="http://www.w3.org/2000/svg" viewBox="0 0 13 14"><defs><style>.cls-1{fill:#36343b;}</style></defs><path id="path5082" class="cls-1" d="M7.5,0A6.49,6.49,0,0,0,4.06,12H4L3,14h9l-1-2h-.06A6.49,6.49,0,0,0,7.5,0ZM7.38,1.51V5a1.4,1.4,0,0,0-.85.35L4.06,2.88A5,5,0,0,1,7.38,1.51Zm.24,0a5,5,0,0,1,3.32,1.37L8.47,5.36h0A1.48,1.48,0,0,0,7.62,5ZM3.88,3.06,6.36,5.53h0A1.48,1.48,0,0,0,6,6.37H2.51A5,5,0,0,1,3.88,3.06Zm7.24,0a5,5,0,0,1,1.37,3.31H9a1.4,1.4,0,0,0-.35-.84ZM2.51,6.62H6a1.4,1.4,0,0,0,.35.85L3.88,9.94A5,5,0,0,1,2.51,6.62ZM9,6.62h3.5a5,5,0,0,1-1.37,3.32L8.64,7.47h0A1.48,1.48,0,0,0,9,6.62Zm-2.46,1h0A1.66,1.66,0,0,0,7,7.91v3.56a5,5,0,0,1-2.94-1.35Zm1.94,0,2.47,2.48A5,5,0,0,1,8,11.47V7.91A1.47,1.47,0,0,0,8.47,7.64Z" transform="translate(-1 0)"/></svg>