<svg id="Layer_1" data-name="Layer 1" xmlns="http://www.w3.org/2000/svg" viewBox="0 0 188.66 211.71"><defs><style>.cls-1{fill:#a4202b;}.cls-2{fill:#ffb32c;}.cls-3{fill:#ee961d;}.cls-4{fill:#ededed;}.cls-5{fill:#dadada;}.cls-6{fill:#d43136;}.cls-7{fill:#eb3b42;}.cls-8{fill:#f28413;}.cls-9{font-size:26.16px;fill:#fff;font-family:AbrilFatface-Regular, Abril Fatface;letter-spacing:-0.03em;}.cls-10{letter-spacing:-0.05em;}.cls-11{letter-spacing:0em;}</style></defs><polygon class="cls-1" points="94.64 42.77 94.03 42.77 8.28 42.77 18.22 125.39 94.03 125.39 94.64 125.39 170.45 125.39 180.38 42.77 94.64 42.77"/><polygon class="cls-2" points="94.62 133.81 94.05 133.81 12.93 133.81 22.33 211.71 94.05 211.71 94.62 211.71 166.33 211.71 175.73 133.81 94.62 133.81"/><path class="cls-3" d="M115.07,239.46c-29,0-55.34-4.28-74.83-11.25l2.84,23.5h144l2.84-23.5C170.41,235.18,144.08,239.46,115.07,239.46Z" transform="translate(-20.74 -40)"/><polygon class="cls-4" points="169.8 8.9 94.33 8.9 18.87 8.9 0 43.07 94.33 43.07 188.66 43.07 169.8 8.9"/><path class="cls-5" d="M115.74,92.5c4.72,0,8.55-4.22,8.55-9.43H107.2C107.2,88.28,111,92.5,115.74,92.5Z" transform="translate(-20.74 -40)"/><path class="cls-6" d="M132.33,92.5c4.72,0,8.55-4.22,8.55-9.43H124.14C124.14,88.28,127.61,92.5,132.33,92.5Z" transform="translate(-20.74 -40)"/><path class="cls-6" d="M98.78,92.5c4.72,0,8.54-4.22,8.54-9.43H90.23C90.23,88.28,94.06,92.5,98.78,92.5Z" transform="translate(-20.74 -40)"/><path class="cls-6" d="M166.29,92.5c4.72,0,8.28-4.22,8.28-9.43H157.73C157.73,88.28,161.56,92.5,166.29,92.5Z" transform="translate(-20.74 -40)"/><path class="cls-5" d="M149.19,92.5c4.72,0,8.54-4.22,8.54-9.43H140.88C140.88,88.28,144.47,92.5,149.19,92.5Z" transform="translate(-20.74 -40)"/><path class="cls-5" d="M82.06,92.5c4.72,0,8.17-4.22,8.17-9.43H73.52C73.52,88.28,77.34,92.5,82.06,92.5Z" transform="translate(-20.74 -40)"/><path class="cls-5" d="M174.57,83.07A9.77,9.77,0,0,0,184,92.5c4.72,0,8.54-4.22,8.54-9.43Z" transform="translate(-20.74 -40)"/><path class="cls-6" d="M192.58,83.05c0,5.21,3.55,9.45,8.27,9.45s8.55-4.22,8.55-9.43Z" transform="translate(-20.74 -40)"/><path class="cls-5" d="M48.13,92.5c4.72,0,8.54-4.22,8.54-9.43H37.83C37.83,88.28,43.41,92.5,48.13,92.5Z" transform="translate(-20.74 -40)"/><path class="cls-6" d="M29.29,92.2c4.72,0,8.54-4.22,8.54-9.43H20.74C20.74,88,24.57,92.2,29.29,92.2Z" transform="translate(-20.74 -40)"/><path class="cls-6" d="M65,92.5c4.72,0,8.55-4.22,8.55-9.43H56.67C56.67,88.28,60.25,92.5,65,92.5Z" transform="translate(-20.74 -40)"/><rect class="cls-2" x="17.75" width="152.05" height="8.9"/><polygon class="cls-3" points="20.95 200.27 167.71 200.27 168.03 197.59 20.63 197.59 20.95 200.27"/><polygon class="cls-3" points="175.73 133.81 94.62 133.81 94.05 133.81 12.93 133.81 13.1 135.14 175.57 135.14 175.73 133.81"/><polygon class="cls-3" points="14.34 145.49 14.67 148.17 174 148.17 174.32 145.49 14.34 145.49"/><polygon class="cls-3" points="15.91 158.52 16.24 161.19 172.43 161.19 172.75 158.52 15.91 158.52"/><polygon class="cls-3" points="17.49 171.54 17.81 174.22 170.85 174.22 171.18 171.54 17.49 171.54"/><polygon class="cls-3" points="19.06 184.57 19.38 187.25 169.28 187.25 169.61 184.57 19.06 184.57"/><polygon class="cls-7" points="17.97 8.9 31.43 8.9 17.09 43.07 0 43.07 17.97 8.9"/><polygon class="cls-7" points="35.93 43.07 45.5 8.9 58.95 8.9 52.77 43.07 35.93 43.07"/><polygon class="cls-7" points="69.61 43.07 73.22 8.9 86.45 8.9 86.45 43.07 69.61 43.07"/><polygon class="cls-7" points="103.29 43.07 99.76 8.9 113.59 8.9 120.13 43.07 103.29 43.07"/><polygon class="cls-7" points="136.99 43.07 153.83 43.07 140.77 8.9 127.97 8.9 136.99 43.07"/><polygon class="cls-7" points="171.81 43.07 188.66 43.07 169.8 8.9 157 8.9 171.81 43.07"/><polygon class="cls-8" points="175.01 139.78 175.73 133.81 94.62 133.81 94.05 133.81 12.93 133.81 13.65 139.78 175.01 139.78"/><rect class="cls-3" x="6.79" y="125.4" width="175.08" height="8.41"/><text class="cls-9" transform="translate(35.47 98.41)">C<tspan class="cls-10" x="17.26" y="0">O</tspan><tspan class="cls-11" x="35.39" y="0">VID-19</tspan></text></svg>