<svg id="Layer_1" data-name="Layer 1" xmlns="http://www.w3.org/2000/svg" viewBox="0 0 179.18 226.48"><defs><style>.cls-1{fill:#eb3b42;}.cls-2{fill:#cc2331;}.cls-3{fill:#bf202b;}.cls-4{fill:#a4202b;}.cls-5{fill:#ee961d;}.cls-6{fill:#ffb32c;}.cls-12,.cls-7{fill:#fff;}.cls-8{fill:#ffd864;}.cls-9{fill:#d43136;}.cls-10{fill:#ededed;}.cls-11{opacity:0.35;}.cls-12{font-size:23.48px;font-family:AbrilFatface-Regular, Abril Fatface;}.cls-13{letter-spacing:-0.01em;}.cls-14{letter-spacing:-0.03em;}.cls-15{letter-spacing:-0.01em;}.cls-16{letter-spacing:-0.03em;}</style></defs><rect class="cls-1" x="13.95" y="50.64" width="154.18" height="89.52"/><rect class="cls-2" x="19.24" y="52.91" width="4.14" height="85.52"/><rect class="cls-2" x="155.63" y="52.91" width="4.14" height="85.52"/><rect class="cls-3" x="45.82" y="78.21" width="85.86" height="60.9"/><path class="cls-4" d="M71.67,111.87a61.47,61.47,0,0,1,69.55,58h17.43V104.7H71.25Z" transform="translate(-25.43 -28)"/><polygon class="cls-1" points="89.59 146.91 4.17 146.91 12.88 226.48 89.59 226.48 166.3 226.48 175.01 146.91 89.59 146.91"/><path class="cls-5" d="M161.8,169.59H68.24v-67.9H161.8Zm-90.7-2.86h87.84V104.55H71.1Z" transform="translate(-25.43 -28)"/><rect class="cls-5" x="39.51" y="67.89" width="100.16" height="7.23"/><rect class="cls-6" x="2.09" width="175.01" height="50.64"/><rect class="cls-1" x="10.72" y="7.84" width="157.73" height="34.96"/><path class="cls-7" d="M32,34.56a2.22,2.22,0,1,1,2.22-2.22A2.21,2.21,0,0,1,32,34.56Z" transform="translate(-25.43 -28)"/><path class="cls-8" d="M32,30.53a1.82,1.82,0,1,1-1.81,1.82A1.81,1.81,0,0,1,32,30.53Zm0-.8a2.62,2.62,0,1,0,2.62,2.62A2.61,2.61,0,0,0,32,29.73Z" transform="translate(-25.43 -28)"/><path class="cls-7" d="M47,34.56a2.22,2.22,0,1,1,2.22-2.22A2.21,2.21,0,0,1,47,34.56Z" transform="translate(-25.43 -28)"/><path class="cls-8" d="M47,30.53a1.82,1.82,0,1,1-1.81,1.82A1.82,1.82,0,0,1,47,30.53Zm0-.8a2.62,2.62,0,1,0,2.62,2.62A2.62,2.62,0,0,0,47,29.73Z" transform="translate(-25.43 -28)"/><path class="cls-7" d="M62,34.56a2.22,2.22,0,1,1,2.22-2.22A2.21,2.21,0,0,1,62,34.56Z" transform="translate(-25.43 -28)"/><path class="cls-8" d="M62,30.53a1.82,1.82,0,1,1-1.81,1.82A1.81,1.81,0,0,1,62,30.53Zm0-.8a2.62,2.62,0,1,0,2.62,2.62A2.62,2.62,0,0,0,62,29.73Z" transform="translate(-25.43 -28)"/><path class="cls-7" d="M77,34.56a2.22,2.22,0,1,1,2.21-2.22A2.22,2.22,0,0,1,77,34.56Z" transform="translate(-25.43 -28)"/><path class="cls-8" d="M77,30.53a1.82,1.82,0,1,1-1.82,1.82A1.81,1.81,0,0,1,77,30.53Zm0-.8a2.62,2.62,0,1,0,2.62,2.62A2.62,2.62,0,0,0,77,29.73Z" transform="translate(-25.43 -28)"/><path class="cls-7" d="M92,34.56a2.22,2.22,0,1,1,2.21-2.22A2.21,2.21,0,0,1,92,34.56Z" transform="translate(-25.43 -28)"/><path class="cls-8" d="M92,30.53a1.82,1.82,0,1,1-1.82,1.82A1.81,1.81,0,0,1,92,30.53Zm0-.8a2.62,2.62,0,1,0,2.61,2.62A2.62,2.62,0,0,0,92,29.73Z" transform="translate(-25.43 -28)"/><path class="cls-7" d="M106.94,34.56a2.22,2.22,0,1,1,2.22-2.22A2.21,2.21,0,0,1,106.94,34.56Z" transform="translate(-25.43 -28)"/><path class="cls-8" d="M106.94,30.53a1.82,1.82,0,1,1-1.81,1.82A1.81,1.81,0,0,1,106.94,30.53Zm0-.8a2.62,2.62,0,1,0,2.62,2.62A2.61,2.61,0,0,0,106.94,29.73Z" transform="translate(-25.43 -28)"/><path class="cls-7" d="M121.93,34.56a2.22,2.22,0,1,1,2.22-2.22A2.21,2.21,0,0,1,121.93,34.56Z" transform="translate(-25.43 -28)"/><path class="cls-8" d="M121.93,30.53a1.82,1.82,0,1,1-1.81,1.82A1.82,1.82,0,0,1,121.93,30.53Zm0-.8a2.62,2.62,0,1,0,2.62,2.62A2.62,2.62,0,0,0,121.93,29.73Z" transform="translate(-25.43 -28)"/><path class="cls-7" d="M136.92,34.56a2.22,2.22,0,1,1,2.22-2.22A2.22,2.22,0,0,1,136.92,34.56Z" transform="translate(-25.43 -28)"/><path class="cls-8" d="M136.92,30.53a1.82,1.82,0,1,1-1.81,1.82A1.81,1.81,0,0,1,136.92,30.53Zm0-.8a2.62,2.62,0,1,0,2.62,2.62A2.62,2.62,0,0,0,136.92,29.73Z" transform="translate(-25.43 -28)"/><path class="cls-7" d="M151.91,34.56a2.22,2.22,0,1,1,2.21-2.22A2.22,2.22,0,0,1,151.91,34.56Z" transform="translate(-25.43 -28)"/><path class="cls-8" d="M151.91,30.53a1.82,1.82,0,1,1-1.82,1.82A1.81,1.81,0,0,1,151.91,30.53Zm0-.8a2.62,2.62,0,1,0,2.62,2.62A2.62,2.62,0,0,0,151.91,29.73Z" transform="translate(-25.43 -28)"/><path class="cls-7" d="M166.9,34.56a2.22,2.22,0,1,1,2.21-2.22A2.21,2.21,0,0,1,166.9,34.56Z" transform="translate(-25.43 -28)"/><path class="cls-8" d="M166.9,30.53a1.82,1.82,0,1,1-1.82,1.82A1.81,1.81,0,0,1,166.9,30.53Zm0-.8a2.62,2.62,0,1,0,2.61,2.62A2.62,2.62,0,0,0,166.9,29.73Z" transform="translate(-25.43 -28)"/><path class="cls-7" d="M181.88,34.56a2.22,2.22,0,1,1,2.22-2.22A2.21,2.21,0,0,1,181.88,34.56Z" transform="translate(-25.43 -28)"/><path class="cls-8" d="M181.88,30.53a1.82,1.82,0,1,1-1.81,1.82A1.81,1.81,0,0,1,181.88,30.53Zm0-.8a2.62,2.62,0,1,0,2.62,2.62A2.61,2.61,0,0,0,181.88,29.73Z" transform="translate(-25.43 -28)"/><path class="cls-7" d="M198.1,34.48a2.22,2.22,0,1,1,2.22-2.22A2.22,2.22,0,0,1,198.1,34.48Z" transform="translate(-25.43 -28)"/><path class="cls-8" d="M198.1,30.45a1.81,1.81,0,1,1-1.81,1.81A1.82,1.82,0,0,1,198.1,30.45Zm0-.81a2.62,2.62,0,1,0,2.62,2.62A2.63,2.63,0,0,0,198.1,29.64Z" transform="translate(-25.43 -28)"/><path class="cls-7" d="M198.1,45a2.22,2.22,0,1,1,2.22-2.21A2.21,2.21,0,0,1,198.1,45Z" transform="translate(-25.43 -28)"/><path class="cls-8" d="M198.1,41a1.81,1.81,0,1,1-1.81,1.81A1.82,1.82,0,0,1,198.1,41Zm0-.81a2.62,2.62,0,1,0,2.62,2.62A2.63,2.63,0,0,0,198.1,40.17Z" transform="translate(-25.43 -28)"/><path class="cls-7" d="M198.1,55.53a2.22,2.22,0,1,1,2.22-2.21A2.21,2.21,0,0,1,198.1,55.53Z" transform="translate(-25.43 -28)"/><path class="cls-8" d="M198.1,51.51a1.81,1.81,0,1,1-1.81,1.81A1.82,1.82,0,0,1,198.1,51.51Zm0-.81a2.62,2.62,0,1,0,2.62,2.62A2.63,2.63,0,0,0,198.1,50.7Z" transform="translate(-25.43 -28)"/><path class="cls-7" d="M198.1,66.06a2.22,2.22,0,1,1,2.22-2.21A2.21,2.21,0,0,1,198.1,66.06Z" transform="translate(-25.43 -28)"/><path class="cls-8" d="M198.1,62a1.82,1.82,0,1,1-1.81,1.82A1.83,1.83,0,0,1,198.1,62Zm0-.8a2.62,2.62,0,1,0,2.62,2.62A2.62,2.62,0,0,0,198.1,61.23Z" transform="translate(-25.43 -28)"/><path class="cls-7" d="M32,45a2.22,2.22,0,1,1,2.22-2.21A2.21,2.21,0,0,1,32,45Z" transform="translate(-25.43 -28)"/><path class="cls-8" d="M32,41a1.81,1.81,0,1,1-1.81,1.81A1.81,1.81,0,0,1,32,41Zm0-.81a2.62,2.62,0,1,0,2.62,2.62A2.62,2.62,0,0,0,32,40.17Z" transform="translate(-25.43 -28)"/><path class="cls-7" d="M32,55.53a2.22,2.22,0,1,1,2.22-2.21A2.21,2.21,0,0,1,32,55.53Z" transform="translate(-25.43 -28)"/><path class="cls-8" d="M32,51.51a1.81,1.81,0,1,1-1.81,1.81A1.81,1.81,0,0,1,32,51.51Zm0-.81a2.62,2.62,0,1,0,2.62,2.62A2.62,2.62,0,0,0,32,50.7Z" transform="translate(-25.43 -28)"/><path class="cls-7" d="M32,66.06a2.22,2.22,0,1,1,2.22-2.21A2.21,2.21,0,0,1,32,66.06Z" transform="translate(-25.43 -28)"/><path class="cls-8" d="M32,62a1.82,1.82,0,1,1-1.81,1.82A1.82,1.82,0,0,1,32,62Zm0-.8a2.62,2.62,0,1,0,2.62,2.62A2.61,2.61,0,0,0,32,61.23Z" transform="translate(-25.43 -28)"/><path class="cls-7" d="M32,76.68a2.22,2.22,0,1,1,2.22-2.21A2.21,2.21,0,0,1,32,76.68Z" transform="translate(-25.43 -28)"/><path class="cls-8" d="M32,72.65a1.82,1.82,0,1,1-1.81,1.81A1.81,1.81,0,0,1,32,72.65Zm0-.8a2.62,2.62,0,1,0,2.62,2.61A2.61,2.61,0,0,0,32,71.85Z" transform="translate(-25.43 -28)"/><path class="cls-7" d="M47,76.68a2.22,2.22,0,1,1,2.22-2.21A2.21,2.21,0,0,1,47,76.68Z" transform="translate(-25.43 -28)"/><path class="cls-8" d="M47,72.65a1.82,1.82,0,1,1-1.81,1.81A1.82,1.82,0,0,1,47,72.65Zm0-.8a2.62,2.62,0,1,0,2.62,2.61A2.62,2.62,0,0,0,47,71.85Z" transform="translate(-25.43 -28)"/><path class="cls-7" d="M62,76.68a2.22,2.22,0,1,1,2.22-2.21A2.21,2.21,0,0,1,62,76.68Z" transform="translate(-25.43 -28)"/><path class="cls-8" d="M62,72.65a1.82,1.82,0,1,1-1.81,1.81A1.81,1.81,0,0,1,62,72.65Zm0-.8a2.62,2.62,0,1,0,2.62,2.61A2.62,2.62,0,0,0,62,71.85Z" transform="translate(-25.43 -28)"/><path class="cls-7" d="M77,76.68a2.22,2.22,0,1,1,2.21-2.21A2.22,2.22,0,0,1,77,76.68Z" transform="translate(-25.43 -28)"/><path class="cls-8" d="M77,72.65a1.82,1.82,0,1,1-1.82,1.81A1.81,1.81,0,0,1,77,72.65Zm0-.8a2.62,2.62,0,1,0,2.62,2.61A2.61,2.61,0,0,0,77,71.85Z" transform="translate(-25.43 -28)"/><path class="cls-7" d="M92,76.68a2.22,2.22,0,1,1,2.21-2.21A2.21,2.21,0,0,1,92,76.68Z" transform="translate(-25.43 -28)"/><path class="cls-8" d="M92,72.65a1.82,1.82,0,1,1-1.82,1.81A1.81,1.81,0,0,1,92,72.65Zm0-.8a2.62,2.62,0,1,0,2.61,2.61A2.61,2.61,0,0,0,92,71.85Z" transform="translate(-25.43 -28)"/><path class="cls-7" d="M106.94,76.68a2.22,2.22,0,1,1,2.22-2.21A2.21,2.21,0,0,1,106.94,76.68Z" transform="translate(-25.43 -28)"/><path class="cls-8" d="M106.94,72.65a1.82,1.82,0,1,1-1.81,1.81A1.81,1.81,0,0,1,106.94,72.65Zm0-.8a2.62,2.62,0,1,0,2.62,2.61A2.61,2.61,0,0,0,106.94,71.85Z" transform="translate(-25.43 -28)"/><path class="cls-7" d="M121.93,76.68a2.22,2.22,0,1,1,2.22-2.21A2.21,2.21,0,0,1,121.93,76.68Z" transform="translate(-25.43 -28)"/><path class="cls-8" d="M121.93,72.65a1.82,1.82,0,1,1-1.81,1.81A1.82,1.82,0,0,1,121.93,72.65Zm0-.8a2.62,2.62,0,1,0,2.62,2.61A2.62,2.62,0,0,0,121.93,71.85Z" transform="translate(-25.43 -28)"/><path class="cls-7" d="M136.92,76.68a2.22,2.22,0,1,1,2.22-2.21A2.22,2.22,0,0,1,136.92,76.68Z" transform="translate(-25.43 -28)"/><path class="cls-8" d="M136.92,72.65a1.82,1.82,0,1,1-1.81,1.81A1.81,1.81,0,0,1,136.92,72.65Zm0-.8a2.62,2.62,0,1,0,2.62,2.61A2.62,2.62,0,0,0,136.92,71.85Z" transform="translate(-25.43 -28)"/><path class="cls-7" d="M151.91,76.68a2.22,2.22,0,1,1,2.21-2.21A2.22,2.22,0,0,1,151.91,76.68Z" transform="translate(-25.43 -28)"/><path class="cls-8" d="M151.91,72.65a1.82,1.82,0,1,1-1.82,1.81A1.81,1.81,0,0,1,151.91,72.65Zm0-.8a2.62,2.62,0,1,0,2.62,2.61A2.61,2.61,0,0,0,151.91,71.85Z" transform="translate(-25.43 -28)"/><path class="cls-7" d="M166.9,76.68a2.22,2.22,0,1,1,2.21-2.21A2.21,2.21,0,0,1,166.9,76.68Z" transform="translate(-25.43 -28)"/><path class="cls-8" d="M166.9,72.65a1.82,1.82,0,1,1-1.82,1.81A1.81,1.81,0,0,1,166.9,72.65Zm0-.8a2.62,2.62,0,1,0,2.61,2.61A2.61,2.61,0,0,0,166.9,71.85Z" transform="translate(-25.43 -28)"/><path class="cls-7" d="M181.88,76.68a2.22,2.22,0,1,1,2.22-2.21A2.21,2.21,0,0,1,181.88,76.68Z" transform="translate(-25.43 -28)"/><path class="cls-8" d="M181.88,72.65a1.82,1.82,0,1,1-1.81,1.81A1.81,1.81,0,0,1,181.88,72.65Zm0-.8a2.62,2.62,0,1,0,2.62,2.61A2.61,2.61,0,0,0,181.88,71.85Z" transform="translate(-25.43 -28)"/><path class="cls-7" d="M198.1,76.59a2.22,2.22,0,1,1,2.22-2.21A2.21,2.21,0,0,1,198.1,76.59Z" transform="translate(-25.43 -28)"/><path class="cls-8" d="M198.1,72.56a1.82,1.82,0,1,1-1.81,1.82A1.83,1.83,0,0,1,198.1,72.56Zm0-.8a2.62,2.62,0,1,0,2.62,2.62A2.62,2.62,0,0,0,198.1,71.76Z" transform="translate(-25.43 -28)"/><rect class="cls-9" x="10.72" y="40.64" width="157.73" height="2.16"/><rect class="cls-9" x="166.69" y="7.84" width="1.76" height="33.88"/><rect class="cls-10" x="5.73" y="50.64" width="13.5" height="89.17"/><polygon class="cls-1" points="5.74 103.61 5.74 107.96 19.24 101.66 19.24 97.31 5.74 103.61"/><polygon class="cls-1" points="5.74 126.66 5.74 131.01 19.24 124.71 19.24 120.36 5.74 126.66"/><polygon class="cls-1" points="19.24 131.89 5.74 138.18 5.74 139.81 11.59 139.81 19.24 136.24 19.24 131.89"/><polygon class="cls-1" points="5.74 115.13 5.74 119.48 19.24 113.19 19.24 108.83 5.74 115.13"/><polygon class="cls-1" points="5.74 92.08 5.74 96.43 19.24 90.14 19.24 85.78 5.74 92.08"/><polygon class="cls-1" points="5.74 57.5 5.74 61.85 19.24 55.56 19.24 51.21 5.74 57.5"/><polygon class="cls-1" points="5.74 69.03 5.74 73.38 19.24 67.08 19.24 62.73 5.74 69.03"/><polygon class="cls-1" points="5.74 80.55 5.74 84.91 19.24 78.61 19.24 74.26 5.74 80.55"/><rect class="cls-10" x="159.94" y="50.64" width="13.5" height="89.17"/><polygon class="cls-1" points="159.94 103.61 159.94 107.96 173.44 101.66 173.44 97.31 159.94 103.61"/><polygon class="cls-1" points="159.94 126.66 159.94 131.01 173.44 124.71 173.44 120.36 159.94 126.66"/><polygon class="cls-1" points="173.44 131.89 159.94 138.18 159.94 139.81 165.79 139.81 173.44 136.24 173.44 131.89"/><polygon class="cls-1" points="159.94 115.13 159.94 119.48 173.44 113.19 173.44 108.83 159.94 115.13"/><polygon class="cls-1" points="159.94 92.08 159.94 96.43 173.44 90.14 173.44 85.78 159.94 92.08"/><polygon class="cls-1" points="159.94 57.5 159.94 61.85 173.44 55.56 173.44 51.21 159.94 57.5"/><polygon class="cls-1" points="159.94 69.03 159.94 73.38 173.44 67.08 173.44 62.73 159.94 69.03"/><polygon class="cls-1" points="159.94 80.55 159.94 84.91 173.44 78.61 173.44 74.26 159.94 80.55"/><rect class="cls-2" x="126.38" y="146.91" width="1.35" height="79.57"/><rect class="cls-2" x="156.34" y="146.91" width="1.35" height="79.57"/><rect class="cls-2" x="96.41" y="146.91" width="1.35" height="79.57"/><rect class="cls-2" x="141.36" y="146.91" width="1.35" height="79.57"/><rect class="cls-2" x="111.39" y="146.91" width="1.35" height="79.57"/><rect class="cls-2" x="81.42" y="146.91" width="1.35" height="79.57"/><rect class="cls-2" x="36.47" y="146.91" width="1.35" height="79.57"/><rect class="cls-2" x="21.48" y="146.91" width="1.35" height="79.57"/><rect class="cls-2" x="51.45" y="146.91" width="1.35" height="79.57"/><rect class="cls-2" x="66.44" y="146.91" width="1.35" height="79.57"/><rect class="cls-5" y="139.11" width="179.18" height="7.79"/><polygon class="cls-2" points="174.5 151.55 175.01 146.91 89.59 146.91 4.17 146.91 4.68 151.55 174.5 151.55"/><g class="cls-11"><rect class="cls-7" x="7.75" y="56.25" width="4.03" height="82.77"/></g><g class="cls-11"><rect class="cls-7" x="162.66" y="56.25" width="4.03" height="82.77"/></g><path class="cls-10" d="M134.67,88a9.72,9.72,0,0,0,9.72-9.72H125A9.72,9.72,0,0,0,134.67,88Z" transform="translate(-25.43 -28)"/><path class="cls-9" d="M154.11,88a9.72,9.72,0,0,0,9.72-9.72H144.39A9.72,9.72,0,0,0,154.11,88Z" transform="translate(-25.43 -28)"/><path class="cls-9" d="M115.23,88A9.72,9.72,0,0,0,125,78.25H105.51A9.72,9.72,0,0,0,115.23,88Z" transform="translate(-25.43 -28)"/><path class="cls-9" d="M193,88a9.72,9.72,0,0,0,9.72-9.72H183.27A9.72,9.72,0,0,0,193,88Z" transform="translate(-25.43 -28)"/><path class="cls-10" d="M173.55,88a9.72,9.72,0,0,0,9.72-9.72H163.83A9.72,9.72,0,0,0,173.55,88Z" transform="translate(-25.43 -28)"/><path class="cls-10" d="M95.79,88a9.72,9.72,0,0,0,9.72-9.72H86.07A9.72,9.72,0,0,0,95.79,88Z" transform="translate(-25.43 -28)"/><path class="cls-10" d="M56.91,88a9.72,9.72,0,0,0,9.72-9.72H47.19A9.72,9.72,0,0,0,56.91,88Z" transform="translate(-25.43 -28)"/><path class="cls-9" d="M37.47,88a9.72,9.72,0,0,0,9.72-9.72H27.75A9.72,9.72,0,0,0,37.47,88Z" transform="translate(-25.43 -28)"/><path class="cls-9" d="M76.35,88a9.72,9.72,0,0,0,9.72-9.72H66.63A9.72,9.72,0,0,0,76.35,88Z" transform="translate(-25.43 -28)"/><path class="cls-2" d="M134.67,90.37c5.37,0,9.72-5.25,9.72-11.73H125C125,85.12,129.3,90.37,134.67,90.37Z" transform="translate(-25.43 -28)"/><path class="cls-2" d="M154.11,90.37c5.37,0,9.72-5.25,9.72-11.73H144.39C144.39,85.12,148.74,90.37,154.11,90.37Z" transform="translate(-25.43 -28)"/><path class="cls-2" d="M115.23,90.37c5.37,0,9.72-5.25,9.72-11.73H105.51C105.51,85.12,109.86,90.37,115.23,90.37Z" transform="translate(-25.43 -28)"/><path class="cls-2" d="M193,90.37c5.37,0,9.72-5.25,9.72-11.73H183.27C183.27,85.12,187.63,90.37,193,90.37Z" transform="translate(-25.43 -28)"/><path class="cls-2" d="M173.55,90.37c5.37,0,9.72-5.25,9.72-11.73H163.83C163.83,85.12,168.18,90.37,173.55,90.37Z" transform="translate(-25.43 -28)"/><path class="cls-2" d="M95.79,90.37c5.37,0,9.72-5.25,9.72-11.73H86.07C86.07,85.12,90.42,90.37,95.79,90.37Z" transform="translate(-25.43 -28)"/><path class="cls-2" d="M56.91,90.37c5.37,0,9.72-5.25,9.72-11.73H47.19C47.19,85.12,51.54,90.37,56.91,90.37Z" transform="translate(-25.43 -28)"/><path class="cls-2" d="M37.47,90.37c5.37,0,9.72-5.25,9.72-11.73H27.75C27.75,85.12,32.1,90.37,37.47,90.37Z" transform="translate(-25.43 -28)"/><path class="cls-2" d="M76.35,90.37c5.37,0,9.72-5.25,9.72-11.73H66.63C66.63,85.12,71,90.37,76.35,90.37Z" transform="translate(-25.43 -28)"/><path class="cls-10" d="M134.67,88a9.72,9.72,0,0,0,9.72-9.72H125A9.72,9.72,0,0,0,134.67,88Z" transform="translate(-25.43 -28)"/><path class="cls-9" d="M154.11,88a9.72,9.72,0,0,0,9.72-9.72H144.39A9.72,9.72,0,0,0,154.11,88Z" transform="translate(-25.43 -28)"/><path class="cls-9" d="M115.23,88A9.72,9.72,0,0,0,125,78.25H105.51A9.72,9.72,0,0,0,115.23,88Z" transform="translate(-25.43 -28)"/><path class="cls-9" d="M193,88a9.72,9.72,0,0,0,9.72-9.72H183.27A9.72,9.72,0,0,0,193,88Z" transform="translate(-25.43 -28)"/><path class="cls-10" d="M173.55,88a9.72,9.72,0,0,0,9.72-9.72H163.83A9.72,9.72,0,0,0,173.55,88Z" transform="translate(-25.43 -28)"/><path class="cls-10" d="M95.79,88a9.72,9.72,0,0,0,9.72-9.72H86.07A9.72,9.72,0,0,0,95.79,88Z" transform="translate(-25.43 -28)"/><path class="cls-10" d="M56.91,88a9.72,9.72,0,0,0,9.72-9.72H47.19A9.72,9.72,0,0,0,56.91,88Z" transform="translate(-25.43 -28)"/><path class="cls-9" d="M37.47,88a9.72,9.72,0,0,0,9.72-9.72H27.75A9.72,9.72,0,0,0,37.47,88Z" transform="translate(-25.43 -28)"/><path class="cls-9" d="M76.35,88a9.72,9.72,0,0,0,9.72-9.72H66.63A9.72,9.72,0,0,0,76.35,88Z" transform="translate(-25.43 -28)"/><path class="cls-2" d="M114.92,241.17c-30.75,0-58.67-4.54-79.33-11.93l3,24.92H191.24l3-24.92C173.58,236.63,145.66,241.17,114.92,241.17Z" transform="translate(-25.43 -28)"/><text class="cls-12" transform="translate(21.02 32.96)">DI<tspan class="cls-13" x="26.06" y="0">S</tspan><tspan class="cls-14" x="39.92" y="0">C</tspan><tspan class="cls-15" x="55.41" y="0">O</tspan><tspan x="72.74" y="0">UN</tspan><tspan class="cls-16" x="104.51" y="0">T</tspan><tspan x="119.84" y="0">S</tspan></text></svg>