<svg id="Layer_1" data-name="Layer 1" xmlns="http://www.w3.org/2000/svg" viewBox="0 0 81.33 74.5"><defs><style>.cls-1{fill:#36343b;}</style></defs><path class="cls-1" d="M31.07,38.79a13,13,0,1,0-13-13A13,13,0,0,0,31.07,38.79Zm0-23a10,10,0,1,1-10,10A10,10,0,0,1,31.07,15.75Z" transform="translate(-9.34 -12.75)"/><path class="cls-1" d="M63.77,50.93a1.5,1.5,0,1,0,.92,2.86A17.31,17.31,0,0,1,87.3,70.27a1.5,1.5,0,0,0,3,0A20.33,20.33,0,0,0,63.77,50.93Z" transform="translate(-9.34 -12.75)"/><path class="cls-1" d="M70.57,46.59a12,12,0,1,0-12-12A12,12,0,0,0,70.57,46.59Zm0-21a9,9,0,1,1-9,9A9,9,0,0,1,70.57,25.64Z" transform="translate(-9.34 -12.75)"/><path class="cls-1" d="M90.62,86.12a1.55,1.55,0,0,0,0-.31v-.1a1.22,1.22,0,0,0,0-.26s0-.06,0-.09a1.4,1.4,0,0,0-.13-.34L81.92,69.54A1.5,1.5,0,1,0,79.3,71l7.32,13.26H64.79a14.71,14.71,0,0,0-29.26,0H22.35V64.8a1.5,1.5,0,0,0-3,0V84.25h-7V45.83H48.5v3.46a9.95,9.95,0,1,0,3,0v-5a1.5,1.5,0,0,0-1.5-1.5H10.84a1.5,1.5,0,0,0-1.5,1.5V85.75a1.5,1.5,0,0,0,1.5,1.5H89.17a1.73,1.73,0,0,0,.38,0l.15-.06a1.54,1.54,0,0,0,.19-.08h0l0,0,.23-.17.08-.08a1.16,1.16,0,0,0,.16-.21l0,0s0,0,0,0a1.3,1.3,0,0,0,.14-.32A.06.06,0,0,1,90.62,86.12Zm-33.77-27a7,7,0,1,1-7-7A7,7,0,0,1,56.85,59.14ZM50.16,74a11.71,11.71,0,0,1,11.6,10.21H38.56A11.73,11.73,0,0,1,50.16,74Z" transform="translate(-9.34 -12.75)"/></svg>