<svg id="Layer_1" data-name="Layer 1" xmlns="http://www.w3.org/2000/svg" viewBox="0 0 92.22 93.22"><defs><style>.cls-1,.cls-4{fill:#54301a;}.cls-1,.cls-10,.cls-12,.cls-16,.cls-17,.cls-18,.cls-19,.cls-2,.cls-20,.cls-21,.cls-22,.cls-29,.cls-30,.cls-34,.cls-38,.cls-41,.cls-42,.cls-43,.cls-44,.cls-45,.cls-46,.cls-47,.cls-48,.cls-49,.cls-50,.cls-51,.cls-52,.cls-53,.cls-54,.cls-55,.cls-56,.cls-6,.cls-8{fill-rule:evenodd;}.cls-2,.cls-3{fill:#8f4333;}.cls-5{fill:#ddaa59;}.cls-6{fill:#bd2e10;}.cls-41,.cls-7{fill:#fcc56b;}.cls-8{fill:#d93c1b;}.cls-9{fill:#663e26;}.cls-10{fill:#935732;}.cls-11,.cls-16{fill:#ac351c;}.cls-12,.cls-14{fill:#c94024;}.cls-13,.cls-17{fill:#ea4d2c;}.cls-15,.cls-19{fill:#ffad7e;}.cls-18{fill:#753b16;}.cls-20{fill:#fff598;}.cls-21,.cls-37{fill:#f5f5b1;}.cls-22,.cls-28{fill:#7f533e;}.cls-23{fill:#ab6f60;}.cls-24{fill:#ffffd5;}.cls-25,.cls-42{fill:#fff;}.cls-26{fill:#654130;}.cls-27{fill:#fffff5;}.cls-29,.cls-32{fill:#65412b;}.cls-30,.cls-31{fill:#a05444;}.cls-33{fill:#eebb6a;}.cls-34{fill:#ce3f21;}.cls-35{fill:#ffd67c;}.cls-36{fill:#774f37;}.cls-38{fill:#5c3c2d;}.cls-39{fill:#9b240b;}.cls-40{fill:#891c04;}.cls-43{fill:#ff9c6d;}.cls-44{fill:#fffffb;}.cls-45{fill:#ffffc9;}.cls-46{fill:#c23315;}.cls-47{fill:#ffff9a;}.cls-48{fill:#ad2b0f;}.cls-49{fill:#ffb94c;}.cls-50{fill:#ffd674;}.cls-51{fill:#ffd767;}.cls-52{fill:#ffff9f;}.cls-53{fill:#f3aa4b;}.cls-54{fill:#ec9331;}.cls-55{fill:#ff5833;}.cls-56{fill:#ffffad;}</style></defs><path class="cls-1" d="M6.07,49.86a.23.23,0,1,1,0,.45.22.22,0,0,1-.22-.22A.22.22,0,0,1,6.07,49.86Z" transform="translate(-0.49 -0.21)"/><path class="cls-1" d="M6.07,49.86c.08,0,.15.1.15.23s-.07.22-.15.22-.14-.1-.14-.22S6,49.86,6.07,49.86Z" transform="translate(-0.49 -0.21)"/><path class="cls-1" d="M6.56,50.39h-1A.69.69,0,0,0,5.83,50h.49A.64.64,0,0,0,6.56,50.39Z" transform="translate(-0.49 -0.21)"/><path class="cls-1" d="M5.77,50.18,5.83,50h.49a.35.35,0,0,0,.06.14H5.77Z" transform="translate(-0.49 -0.21)"/><path class="cls-2" d="M6.35,50.39H5.8A.77.77,0,0,0,5.93,50h.28A.78.78,0,0,0,6.35,50.39Z" transform="translate(-0.49 -0.21)"/><path class="cls-1" d="M5.9,50.18a.58.58,0,0,0,0-.14h.28a.57.57,0,0,0,0,.14H5.9Z" transform="translate(-0.49 -0.21)"/><rect class="cls-3" x="3.78" y="51.83" width="3.6" height="0.13"/><rect class="cls-3" x="4.48" y="51.83" width="2.21" height="0.13"/><path class="cls-1" d="M7.55,52.63h-3a1.72,1.72,0,0,0-.09-.19.57.57,0,0,0-.23-.28h3.6A1,1,0,0,0,7.55,52.63Z" transform="translate(-0.49 -0.21)"/><path class="cls-1" d="M4.27,52h3.6V52c-1-.23-.47-.87-1.33-.89H5.61c-.86,0-.34.66-1.34.89Z" transform="translate(-0.49 -0.21)"/><path class="cls-1" d="M5,52H7.18c-.77-.16-.39-.94-.87-1H5.84C5.36,51.1,5.74,51.88,5,52Z" transform="translate(-0.49 -0.21)"/><path class="cls-1" d="M6.91,52.63H5.24c0-.07,0-.14-.06-.19a.44.44,0,0,0-.07-.19l-.06-.09h2A1.26,1.26,0,0,0,6.91,52.63Z" transform="translate(-0.49 -0.21)"/><path class="cls-1" d="M6.43,51H5.72a1.42,1.42,0,0,0-.19-.46H6.62A1,1,0,0,0,6.43,51Z" transform="translate(-0.49 -0.21)"/><path class="cls-2" d="M6.26,51H5.89a2.75,2.75,0,0,0-.17-.46h.71A1.08,1.08,0,0,0,6.26,51Z" transform="translate(-0.49 -0.21)"/><rect class="cls-4" x="5.08" y="50.75" width="1" height="0.13"/><rect class="cls-4" x="5.28" y="50.75" width="0.61" height="0.13"/><rect class="cls-4" x="4.95" y="50.17" width="1.27" height="0.13"/><rect class="cls-4" x="5.2" y="50.17" width="0.78" height="0.13"/><rect class="cls-3" x="4.24" y="52.41" width="2.66" height="4.91"/><rect class="cls-5" x="4.44" y="52.39" width="2.26" height="4.95"/><path class="cls-6" d="M7.19,56.61v.94H5.76C6.23,57.22,6.78,56.91,7.19,56.61Z" transform="translate(-0.49 -0.21)"/><path class="cls-6" d="M6.12,52.6H7.19v.5c-.72.52-1.89,1.09-2.26,1.74v-1.2A3.66,3.66,0,0,1,6.12,52.6Z" transform="translate(-0.49 -0.21)"/><path class="cls-6" d="M7.19,54.32v1.2c-.72.52-1.89,1.09-2.26,1.74v-1.2C5.3,55.42,6.47,54.84,7.19,54.32Z" transform="translate(-0.49 -0.21)"/><rect class="cls-7" x="5.05" y="52.39" width="1.05" height="4.95"/><path class="cls-8" d="M6.58,57.55H5.76c.26-.19.55-.37.82-.54Z" transform="translate(-0.49 -0.21)"/><path class="cls-8" d="M6.12,52.6h.46v.9c-.35.23-.73.46-1,.71V53A6.79,6.79,0,0,1,6.12,52.6Z" transform="translate(-0.49 -0.21)"/><path class="cls-8" d="M6.58,55.92c-.35.23-.73.46-1,.71v-1.2c.32-.25.7-.48,1-.71Z" transform="translate(-0.49 -0.21)"/><path class="cls-1" d="M6.07,60.25A.23.23,0,0,0,6.3,60a.22.22,0,0,0-.23-.22.22.22,0,0,0-.22.22A.23.23,0,0,0,6.07,60.25Z" transform="translate(-0.49 -0.21)"/><path class="cls-1" d="M6.07,60.25c.08,0,.15-.11.15-.23s-.07-.22-.15-.22-.14.1-.14.22S6,60.25,6.07,60.25Z" transform="translate(-0.49 -0.21)"/><path class="cls-1" d="M6.56,59.72h-1a.65.65,0,0,1,.24.35h.49A.64.64,0,0,1,6.56,59.72Z" transform="translate(-0.49 -0.21)"/><path class="cls-1" d="M5.77,59.93l.06.14h.49a.35.35,0,0,1,.06-.14H5.77Z" transform="translate(-0.49 -0.21)"/><path class="cls-2" d="M6.35,59.72H5.8a.73.73,0,0,1,.13.35h.28A.78.78,0,0,1,6.35,59.72Z" transform="translate(-0.49 -0.21)"/><path class="cls-2" d="M5.9,59.93a.58.58,0,0,1,0,.14h.28a.57.57,0,0,1,0-.14H5.9Z" transform="translate(-0.49 -0.21)"/><rect class="cls-3" x="3.78" y="57.73" width="3.6" height="0.13"/><rect class="cls-3" x="4.48" y="57.73" width="2.21" height="0.13"/><path class="cls-1" d="M7.55,57.48h-3l-.09.19a.44.44,0,0,1-.12.19.26.26,0,0,1-.11.08h3.6C7.77,57.9,7.66,57.73,7.55,57.48Z" transform="translate(-0.49 -0.21)"/><path class="cls-1" d="M4.27,58.07h3.6v.06c-1,.24-.47.88-1.33.89H5.61c-.86,0-.34-.65-1.34-.89Z" transform="translate(-0.49 -0.21)"/><path class="cls-1" d="M5,58.07H7.18c-.77.15-.39.93-.87,1H5.84C5.36,59,5.74,58.22,5,58.07Z" transform="translate(-0.49 -0.21)"/><path class="cls-1" d="M6.91,57.48H5.24l-.06.19a.44.44,0,0,1-.07.19.18.18,0,0,1-.06.08h2A1.11,1.11,0,0,1,6.91,57.48Z" transform="translate(-0.49 -0.21)"/><path class="cls-1" d="M6.43,59.15H5.72a1.42,1.42,0,0,1-.19.46H6.62A1,1,0,0,1,6.43,59.15Z" transform="translate(-0.49 -0.21)"/><path class="cls-2" d="M6.26,59.15H5.89a2.75,2.75,0,0,1-.17.46h.71A1.08,1.08,0,0,1,6.26,59.15Z" transform="translate(-0.49 -0.21)"/><rect class="cls-4" x="5.08" y="58.81" width="1" height="0.13"/><rect class="cls-9" x="4.95" y="59.39" width="1.27" height="0.13"/><rect class="cls-9" x="5.2" y="59.39" width="0.78" height="0.13"/><rect class="cls-3" x="6.81" y="53.13" width="1.18" height="0.38"/><rect class="cls-3" x="6.81" y="56.17" width="1.18" height="0.38"/><polygon class="cls-10" points="33.87 49.14 35.66 49.65 35.66 82.15 33.87 83.15 33.87 49.14"/><rect class="cls-11" x="32.92" y="85.32" width="27.16" height="7.91"/><polygon class="cls-12" points="33.37 51.38 36.77 49.49 36.77 84.56 33.37 86.45 33.37 51.38"/><rect class="cls-13" x="7.85" y="51.39" width="6.14" height="35.07"/><rect class="cls-14" x="8.35" y="51.39" width="5.14" height="35.07"/><rect class="cls-13" x="8.74" y="51.39" width="4.36" height="35.07"/><rect class="cls-14" x="9.29" y="52.67" width="3.25" height="32.5"/><rect class="cls-13" x="6.72" y="86.47" width="26.65" height="5.52"/><rect class="cls-15" x="6.72" y="86.47" width="26.65" height="1.06"/><rect class="cls-14" x="6.72" y="87.53" width="26.65" height="0.5"/><rect class="cls-11" x="6.72" y="91.64" width="26.65" height="0.35"/><polygon class="cls-12" points="35.08 85.51 36.78 84.56 36.78 90.08 33.36 91.98 33.36 86.47 35.08 85.51"/><polygon class="cls-16" points="35.08 50.97 35.97 51.22 35.97 83.72 35.08 84.21 34.17 84.72 34.17 50.71 35.08 50.97"/><polygon class="cls-12" points="55.41 90.08 58.83 91.98 58.83 86.47 55.41 84.56 55.41 90.08"/><polygon class="cls-12" points="58.82 51.38 55.42 49.49 55.42 84.56 58.82 86.45 58.82 51.38"/><polygon class="cls-16" points="58.02 50.71 56.22 51.22 56.22 83.72 58.02 84.72 58.02 50.71"/><rect class="cls-13" x="78.2" y="51.39" width="6.14" height="35.07"/><rect class="cls-14" x="78.7" y="51.39" width="5.14" height="35.07"/><rect class="cls-13" x="79.09" y="51.39" width="4.36" height="35.07"/><rect class="cls-14" x="79.64" y="52.67" width="3.25" height="32.5"/><rect class="cls-15" x="79.94" y="53.06" width="2.66" height="31.73"/><rect class="cls-13" x="58.81" y="86.47" width="26.65" height="5.52"/><rect class="cls-15" x="58.81" y="86.47" width="26.65" height="1.06"/><rect class="cls-14" x="58.81" y="91.58" width="26.65" height="0.4"/><rect class="cls-14" x="58.81" y="87.53" width="26.65" height="0.33"/><polygon class="cls-12" points="84.23 51.46 7.8 51.46 6.79 50.63 85.23 50.63 84.23 51.46"/><polygon class="cls-16" points="7.47 51.2 7.21 50.98 84.81 50.98 84.55 51.2 7.47 51.2"/><polygon class="cls-17" points="86.23 49.2 5.79 49.2 6.79 50.63 85.23 50.63 86.23 49.2"/><polygon class="cls-12" points="86.23 49.2 5.79 49.2 6.79 48.93 85.23 48.93 86.23 49.2"/><polygon class="cls-18" points="74.84 48.76 17.18 48.76 17.9 48.49 74.13 48.49 74.84 48.76"/><rect class="cls-14" x="4.61" y="47.98" width="82.8" height="1.12"/><rect class="cls-14" x="4.61" y="47.68" width="82.8" height="0.3"/><rect class="cls-11" x="4.61" y="45.15" width="82.8" height="2.53"/><polygon class="cls-16" points="55.77 51.38 36.25 51.38 36.25 82.74 36.25 90.31 55.77 90.31 55.77 51.38"/><polygon class="cls-19" points="55.38 51.38 36.64 51.38 36.64 82.74 36.64 90.31 55.38 90.31 55.38 51.38"/><polygon class="cls-12" points="54.62 51.38 37.4 51.38 37.4 82.74 37.4 90.31 54.62 90.31 54.62 51.38"/><polygon class="cls-20" points="37.91 90.31 54.11 90.31 54.11 51.38 37.91 51.38 37.91 82.74 37.91 90.31"/><polygon class="cls-21" points="37.91 90.31 54.11 90.31 54.11 51.38 37.91 51.38 37.91 82.74 37.91 90.31"/><polygon class="cls-22" points="37.91 90.31 54.11 90.31 54.11 51.38 37.91 51.38 37.91 82.74 37.91 90.31"/><polygon class="cls-22" points="54.11 78.44 37.91 78.44 37.91 82.74 37.91 90.31 54.11 90.31 54.11 78.44"/><polygon class="cls-17" points="54.11 82.41 37.91 82.41 37.91 82.74 37.91 90.31 54.11 90.31 54.11 82.41"/><rect class="cls-13" x="37.91" y="88.66" width="16.2" height="1.65"/><rect class="cls-23" x="37.91" y="88.39" width="16.2" height="0.27"/><rect class="cls-24" x="37.91" y="88.66" width="16.2" height="0.06"/><rect class="cls-25" x="37.91" y="82.41" width="16.2" height="0.22"/><rect class="cls-26" x="37.91" y="60.83" width="16.2" height="1.65"/><rect class="cls-26" x="37.91" y="60.83" width="16.2" height="0.81"/><rect class="cls-27" x="37.91" y="59.15" width="16.2" height="1.68"/><rect class="cls-14" x="37.91" y="59.15" width="16.2" height="1.68"/><rect class="cls-15" x="37.91" y="59.55" width="16.2" height="0.71"/><rect class="cls-15" x="37.91" y="60.27" width="16.2" height="0.24"/><rect class="cls-25" x="37.91" y="59.55" width="16.2" height="0.17"/><rect class="cls-28" x="37.91" y="53.06" width="16.2" height="1.64"/><rect class="cls-26" x="37.91" y="53.06" width="16.2" height="0.81"/><rect class="cls-27" x="37.91" y="51.38" width="16.2" height="1.68"/><rect class="cls-28" x="37.91" y="51.38" width="16.2" height="1.68"/><rect class="cls-15" x="37.91" y="51.79" width="16.2" height="0.71"/><rect class="cls-14" x="37.91" y="52.5" width="16.2" height="0.24"/><rect class="cls-14" x="37.91" y="51.79" width="16.2" height="0.17"/><path class="cls-29" d="M87.22,51.43a.22.22,0,0,0-.22.23.22.22,0,0,0,.44,0A.22.22,0,0,0,87.22,51.43Z" transform="translate(-0.49 -0.21)"/><path class="cls-29" d="M87.22,51.43c-.08,0-.14.1-.14.23s.06.22.14.22.14-.1.14-.22S87.3,51.43,87.22,51.43Z" transform="translate(-0.49 -0.21)"/><path class="cls-29" d="M86.74,52h1a.62.62,0,0,1-.23-.35H87A.67.67,0,0,1,86.74,52Z" transform="translate(-0.49 -0.21)"/><path class="cls-29" d="M87.52,51.75a.58.58,0,0,1,0-.14H87a.58.58,0,0,1,0,.14h.6Z" transform="translate(-0.49 -0.21)"/><path class="cls-30" d="M86.94,52h.56a.68.68,0,0,1-.14-.35h-.28A.78.78,0,0,1,86.94,52Z" transform="translate(-0.49 -0.21)"/><path class="cls-29" d="M87.39,51.75l0-.14h-.28l0,.14h.34Z" transform="translate(-0.49 -0.21)"/><rect class="cls-31" x="84.93" y="53.4" width="3.6" height="0.13"/><rect class="cls-31" x="85.63" y="53.4" width="2.2" height="0.13"/><path class="cls-29" d="M85.74,54.2h3l.09-.19a.38.38,0,0,1,.13-.19.28.28,0,0,1,.1-.09h-3.6A1,1,0,0,1,85.74,54.2Z" transform="translate(-0.49 -0.21)"/><path class="cls-29" d="M89,53.61h-3.6v-.07c1-.23.47-.87,1.33-.88h.94c.86,0,.33.65,1.33.88Z" transform="translate(-0.49 -0.21)"/><path class="cls-29" d="M88.32,53.61h-2.2c.76-.16.38-.94.86-1h.47C87.93,52.67,87.56,53.45,88.32,53.61Z" transform="translate(-0.49 -0.21)"/><path class="cls-29" d="M86.38,54.2h1.68a1.05,1.05,0,0,1,0-.19.44.44,0,0,1,.07-.19l.06-.09h-2A1.1,1.1,0,0,1,86.38,54.2Z" transform="translate(-0.49 -0.21)"/><path class="cls-29" d="M86.86,52.53h.71a1.41,1.41,0,0,1,.2-.46h-1.1A1,1,0,0,1,86.86,52.53Z" transform="translate(-0.49 -0.21)"/><path class="cls-30" d="M87,52.53h.36a2.75,2.75,0,0,1,.17-.46h-.71A1,1,0,0,1,87,52.53Z" transform="translate(-0.49 -0.21)"/><rect class="cls-32" x="86.23" y="52.32" width="1" height="0.13"/><rect class="cls-32" x="86.42" y="52.32" width="0.61" height="0.13"/><rect class="cls-32" x="86.09" y="51.74" width="1.27" height="0.13"/><rect class="cls-32" x="86.34" y="51.74" width="0.78" height="0.13"/><rect class="cls-31" x="85.41" y="53.98" width="2.66" height="4.91"/><rect class="cls-33" x="85.62" y="53.96" width="2.26" height="4.95"/><path class="cls-34" d="M86.1,58.18v.94h1.44C87.07,58.79,86.51,58.48,86.1,58.18Z" transform="translate(-0.49 -0.21)"/><path class="cls-34" d="M87.17,54.17H86.1v.5c.73.52,1.89,1.09,2.26,1.74v-1.2A3.67,3.67,0,0,0,87.17,54.17Z" transform="translate(-0.49 -0.21)"/><rect class="cls-35" x="86.22" y="53.96" width="1.05" height="4.95"/><path class="cls-17" d="M86.71,59.12h.83c-.27-.19-.56-.37-.83-.54Z" transform="translate(-0.49 -0.21)"/><path class="cls-17" d="M87.17,54.17h-.46v.9c.35.23.73.46,1.05.71v-1.2A6.79,6.79,0,0,0,87.17,54.17Z" transform="translate(-0.49 -0.21)"/><path class="cls-17" d="M86.71,57.49c.35.23.73.46,1.05.71V57c-.32-.25-.7-.48-1.05-.71Z" transform="translate(-0.49 -0.21)"/><path class="cls-29" d="M87.22,61.82a.22.22,0,0,1-.22-.23.22.22,0,1,1,.44,0A.22.22,0,0,1,87.22,61.82Z" transform="translate(-0.49 -0.21)"/><path class="cls-29" d="M87.22,61.82c-.08,0-.14-.1-.14-.23s.06-.22.14-.22.14.1.14.22S87.3,61.82,87.22,61.82Z" transform="translate(-0.49 -0.21)"/><path class="cls-29" d="M86.74,61.29h1a.62.62,0,0,0-.23.35H87A.67.67,0,0,0,86.74,61.29Z" transform="translate(-0.49 -0.21)"/><path class="cls-29" d="M87.52,61.5a.58.58,0,0,0,0,.14H87a.58.58,0,0,0,0-.14h.6Z" transform="translate(-0.49 -0.21)"/><path class="cls-30" d="M86.94,61.29h.56a.68.68,0,0,0-.14.35h-.28A.78.78,0,0,0,86.94,61.29Z" transform="translate(-0.49 -0.21)"/><path class="cls-30" d="M87.39,61.5l0,.14h-.28l0-.14h.34Z" transform="translate(-0.49 -0.21)"/><rect class="cls-31" x="84.93" y="59.3" width="3.6" height="0.13"/><rect class="cls-31" x="85.63" y="59.3" width="2.2" height="0.13"/><path class="cls-29" d="M85.74,59.05h3l.09.19a.38.38,0,0,0,.13.19.19.19,0,0,0,.1.08h-3.6C85.52,59.47,85.63,59.3,85.74,59.05Z" transform="translate(-0.49 -0.21)"/><path class="cls-29" d="M89,59.64h-3.6v.07c1,.23.47.87,1.33.88h.94c.86,0,.33-.65,1.33-.88Z" transform="translate(-0.49 -0.21)"/><path class="cls-29" d="M88.32,59.64h-2.2c.76.16.38.94.86,1h.47C87.93,60.58,87.56,59.8,88.32,59.64Z" transform="translate(-0.49 -0.21)"/><path class="cls-29" d="M86.38,59.05h1.68a1.05,1.05,0,0,0,0,.19.44.44,0,0,0,.07.19.18.18,0,0,0,.06.08h-2A1,1,0,0,0,86.38,59.05Z" transform="translate(-0.49 -0.21)"/><path class="cls-29" d="M86.86,60.72h.71a1.41,1.41,0,0,0,.2.46h-1.1A1,1,0,0,0,86.86,60.72Z" transform="translate(-0.49 -0.21)"/><path class="cls-30" d="M87,60.72h.36a2.75,2.75,0,0,0,.17.46h-.71A1,1,0,0,0,87,60.72Z" transform="translate(-0.49 -0.21)"/><rect class="cls-32" x="86.23" y="60.38" width="1" height="0.13"/><rect class="cls-36" x="86.09" y="60.96" width="1.27" height="0.13"/><rect class="cls-36" x="86.34" y="60.96" width="0.78" height="0.13"/><rect class="cls-31" x="84.33" y="54.71" width="1.18" height="0.38"/><rect class="cls-31" x="84.33" y="57.74" width="1.18" height="0.38"/><polygon class="cls-17" points="33.38 51.39 13.89 51.39 13.89 79.64 13.89 86.46 33.38 86.46 33.38 51.39"/><rect class="cls-15" x="14.77" y="51.39" width="17.72" height="35.07"/><rect class="cls-37" x="15" y="51.39" width="17.34" height="35.07"/><rect class="cls-28" x="14.77" y="51.39" width="17.57" height="35.07"/><polygon class="cls-38" points="32.34 75.76 14.77 75.76 14.77 79.35 14.77 86.46 32.34 86.46 32.34 75.76"/><rect class="cls-26" x="14.77" y="61.63" width="17.57" height="1.48"/><rect class="cls-26" x="14.77" y="61.63" width="17.57" height="0.73"/><rect class="cls-13" x="14.77" y="55.57" width="17.59" height="0.52"/><rect class="cls-13" x="23.25" y="51.39" width="0.47" height="8.89"/><rect class="cls-13" x="29.5" y="51.39" width="0.47" height="8.89"/><rect class="cls-15" x="14.77" y="55.57" width="17.59" height="0.32"/><rect class="cls-15" x="14.77" y="53.57" width="17.59" height="0.21"/><rect class="cls-15" x="14.61" y="57.87" width="17.75" height="0.22"/><rect class="cls-15" x="23.44" y="51.39" width="0.28" height="8.89"/><rect class="cls-15" x="29.69" y="51.39" width="0.28" height="8.89"/><rect class="cls-15" x="17.31" y="51.39" width="0.28" height="8.89"/><rect class="cls-13" x="14.78" y="79.34" width="17.76" height="7.12"/><rect class="cls-13" x="14.83" y="84.97" width="17.66" height="1.49"/><rect class="cls-14" x="14.78" y="84.73" width="17.76" height="0.24"/><rect class="cls-24" x="14.78" y="84.97" width="17.76" height="0.05"/><rect class="cls-24" x="14.78" y="79.34" width="17.76" height="0.2"/><rect class="cls-27" x="26.24" y="51.51" width="1.02" height="9.41"/><rect class="cls-13" x="26.24" y="51.51" width="1.02" height="9.4"/><rect class="cls-15" x="26.58" y="51.51" width="0.43" height="9.4"/><rect class="cls-15" x="26.43" y="51.51" width="0.14" height="9.4"/><rect class="cls-15" x="26.91" y="51.51" width="0.1" height="9.4"/><rect class="cls-13" x="26.14" y="51.51" width="0.1" height="9.4"/><rect class="cls-27" x="20.15" y="51.51" width="1.02" height="9.41"/><rect class="cls-14" x="20.15" y="51.51" width="1.02" height="9.44"/><rect class="cls-15" x="20.49" y="51.51" width="0.43" height="9.44"/><rect class="cls-13" x="20.35" y="51.51" width="0.14" height="9.44"/><rect class="cls-25" x="20.82" y="51.51" width="0.1" height="9.44"/><rect class="cls-13" x="20.05" y="51.51" width="0.1" height="9.44"/><rect class="cls-27" x="14.74" y="60.11" width="17.91" height="1.52"/><rect class="cls-14" x="14.74" y="60.11" width="17.91" height="1.52"/><rect class="cls-15" x="14.74" y="60.48" width="17.91" height="0.64"/><rect class="cls-15" x="14.74" y="61.12" width="17.91" height="0.21"/><rect class="cls-25" x="14.74" y="60.48" width="17.91" height="0.16"/><rect class="cls-24" x="26.85" y="80.83" width="4.56" height="3.45"/><polygon class="cls-12" points="31.41 80.83 31.01 81.22 27.25 83.89 26.85 84.28 31.41 84.28 31.41 80.83"/><rect class="cls-15" x="27.25" y="81.29" width="3.76" height="2.53"/><rect class="cls-24" x="21.52" y="80.83" width="4.28" height="3.45"/><polygon class="cls-12" points="25.8 80.83 25.42 81.22 21.89 83.89 21.52 84.28 25.8 84.28 25.8 80.83"/><rect class="cls-15" x="21.9" y="81.22" width="3.53" height="2.67"/><rect class="cls-24" x="16.31" y="80.83" width="4.28" height="3.45"/><polygon class="cls-12" points="20.59 80.83 20.21 81.22 16.69 83.89 16.31 84.28 20.59 84.28 20.59 80.83"/><rect class="cls-15" x="16.69" y="81.22" width="3.53" height="2.67"/><polygon class="cls-17" points="78.24 51.39 58.76 51.39 58.76 79.64 58.76 86.46 78.24 86.46 78.24 51.39"/><rect class="cls-14" x="59.64" y="51.39" width="17.72" height="35.07"/><rect class="cls-37" x="59.86" y="51.39" width="17.34" height="35.07"/><rect class="cls-28" x="59.64" y="51.39" width="17.57" height="35.07"/><polygon class="cls-38" points="77.2 75.76 59.64 75.76 59.64 79.35 59.64 86.46 77.2 86.46 77.2 75.76"/><rect class="cls-26" x="59.64" y="61.63" width="17.57" height="1.48"/><rect class="cls-26" x="59.64" y="61.63" width="17.57" height="0.73"/><rect class="cls-14" x="59.64" y="55.57" width="17.59" height="0.52"/><rect class="cls-14" x="68.12" y="51.39" width="0.47" height="8.89"/><rect class="cls-14" x="74.37" y="51.39" width="0.47" height="8.89"/><rect class="cls-15" x="59.64" y="55.57" width="17.59" height="0.32"/><rect class="cls-15" x="59.64" y="53.57" width="17.59" height="0.21"/><rect class="cls-15" x="59.48" y="57.87" width="17.75" height="0.22"/><rect class="cls-15" x="68.31" y="51.39" width="0.28" height="8.89"/><rect class="cls-15" x="74.55" y="51.39" width="0.28" height="8.89"/><rect class="cls-15" x="62.17" y="51.39" width="0.28" height="8.89"/><rect class="cls-13" x="59.65" y="79.34" width="17.76" height="7.12"/><rect class="cls-14" x="59.65" y="84.73" width="17.76" height="0.24"/><rect class="cls-24" x="59.65" y="84.97" width="17.76" height="0.05"/><rect class="cls-24" x="59.65" y="79.34" width="17.76" height="0.2"/><rect class="cls-27" x="71.1" y="51.51" width="1.02" height="9.41"/><rect class="cls-14" x="71.1" y="51.51" width="1.02" height="9.4"/><rect class="cls-15" x="71.44" y="51.51" width="0.43" height="9.4"/><rect class="cls-14" x="71.3" y="51.51" width="0.14" height="9.4"/><rect class="cls-15" x="71.77" y="51.51" width="0.11" height="9.4"/><rect class="cls-14" x="71" y="51.51" width="0.1" height="9.4"/><rect class="cls-27" x="65.02" y="51.51" width="1.02" height="9.41"/><rect class="cls-14" x="65.02" y="51.51" width="1.02" height="9.44"/><rect class="cls-15" x="65.36" y="51.51" width="0.43" height="9.44"/><rect class="cls-14" x="65.21" y="51.51" width="0.14" height="9.44"/><rect class="cls-25" x="65.68" y="51.51" width="0.11" height="9.44"/><rect class="cls-14" x="64.91" y="51.51" width="0.1" height="9.44"/><rect class="cls-27" x="59.61" y="60.11" width="17.91" height="1.52"/><rect class="cls-14" x="59.61" y="60.11" width="17.91" height="1.52"/><rect class="cls-15" x="59.61" y="60.48" width="17.91" height="0.64"/><rect class="cls-15" x="59.61" y="61.12" width="17.91" height="0.21"/><rect class="cls-25" x="59.61" y="60.48" width="17.91" height="0.16"/><rect class="cls-24" x="71.72" y="80.83" width="4.56" height="3.45"/><polygon class="cls-12" points="76.28 80.83 75.88 81.22 72.12 83.89 71.72 84.28 76.28 84.28 76.28 80.83"/><rect class="cls-15" x="72.12" y="81.29" width="3.76" height="2.53"/><rect class="cls-24" x="66.39" y="80.83" width="4.28" height="3.45"/><polygon class="cls-12" points="70.66 80.83 70.29 81.22 66.76 83.89 66.39 84.28 70.66 84.28 70.66 80.83"/><rect class="cls-15" x="66.76" y="81.29" width="3.53" height="2.53"/><rect class="cls-24" x="61.18" y="80.83" width="4.28" height="3.45"/><polygon class="cls-12" points="65.46 80.83 65.08 81.22 61.55 83.89 61.18 84.28 65.46 84.28 65.46 80.83"/><rect class="cls-15" x="61.56" y="81.22" width="3.53" height="2.67"/><path class="cls-29" d="M6,51.43a.22.22,0,0,1,.22.23.22.22,0,0,1-.22.22.23.23,0,1,1,0-.45Z" transform="translate(-0.49 -0.21)"/><path class="cls-29" d="M6,51.43c.07,0,.14.1.14.23s-.07.22-.14.22-.15-.1-.15-.22S5.9,51.43,6,51.43Z" transform="translate(-0.49 -0.21)"/><path class="cls-29" d="M6.46,52h-1a.64.64,0,0,0,.24-.35h.49A.64.64,0,0,0,6.46,52Z" transform="translate(-0.49 -0.21)"/><path class="cls-29" d="M5.67,51.75a.35.35,0,0,0,.06-.14h.49a.35.35,0,0,0,.06.14H5.67Z" transform="translate(-0.49 -0.21)"/><path class="cls-30" d="M6.25,52H5.7a.67.67,0,0,0,.13-.35h.29A.67.67,0,0,0,6.25,52Z" transform="translate(-0.49 -0.21)"/><path class="cls-29" d="M5.8,51.75a.32.32,0,0,0,0-.14h.29a.32.32,0,0,0,0,.14H5.8Z" transform="translate(-0.49 -0.21)"/><rect class="cls-31" x="3.69" y="53.4" width="3.6" height="0.13"/><rect class="cls-31" x="4.39" y="53.4" width="2.2" height="0.13"/><path class="cls-29" d="M7.46,54.2h-3L4.41,54a.59.59,0,0,0-.13-.19.41.41,0,0,0-.1-.09h3.6A.94.94,0,0,0,7.46,54.2Z" transform="translate(-0.49 -0.21)"/><path class="cls-29" d="M4.17,53.61H7.78v-.07c-1-.23-.48-.87-1.34-.88H5.51c-.86,0-.33.65-1.34.88Z" transform="translate(-0.49 -0.21)"/><path class="cls-29" d="M4.87,53.61H7.08c-.77-.16-.39-.94-.87-1H5.74C5.26,52.67,5.64,53.45,4.87,53.61Z" transform="translate(-0.49 -0.21)"/><path class="cls-29" d="M6.82,54.2H5.14a1.8,1.8,0,0,1,0-.19A1.07,1.07,0,0,0,5,53.82L5,53.73H7A1.1,1.1,0,0,0,6.82,54.2Z" transform="translate(-0.49 -0.21)"/><path class="cls-29" d="M6.33,52.53H5.62a1.42,1.42,0,0,0-.19-.46h1.1A.89.89,0,0,0,6.33,52.53Z" transform="translate(-0.49 -0.21)"/><path class="cls-30" d="M6.16,52.53H5.8a2.1,2.1,0,0,0-.18-.46h.71A1.08,1.08,0,0,0,6.16,52.53Z" transform="translate(-0.49 -0.21)"/><rect class="cls-32" x="4.99" y="52.32" width="1" height="0.13"/><rect class="cls-32" x="5.18" y="52.32" width="0.61" height="0.13"/><rect class="cls-32" x="4.85" y="51.74" width="1.27" height="0.13"/><rect class="cls-32" x="5.1" y="51.74" width="0.78" height="0.13"/><rect class="cls-31" x="4.14" y="53.98" width="2.66" height="4.91"/><rect class="cls-33" x="4.34" y="53.96" width="2.26" height="4.95"/><path class="cls-34" d="M7.09,58.18v.94H5.66C6.13,58.79,6.68,58.48,7.09,58.18Z" transform="translate(-0.49 -0.21)"/><path class="cls-34" d="M6,54.17H7.09v.5c-.72.52-1.88,1.09-2.26,1.74v-1.2A3.89,3.89,0,0,1,6,54.17Z" transform="translate(-0.49 -0.21)"/><path class="cls-34" d="M7.09,55.9v1.2a8.75,8.75,0,0,0-2.26,1.73v-1.2A8.75,8.75,0,0,1,7.09,55.9Z" transform="translate(-0.49 -0.21)"/><rect class="cls-35" x="4.95" y="53.96" width="1.05" height="4.95"/><path class="cls-17" d="M6.49,59.12H5.66c.26-.19.55-.37.83-.54Z" transform="translate(-0.49 -0.21)"/><path class="cls-17" d="M6,54.17h.47v.9a12,12,0,0,0-1,.71v-1.2C5.62,54.44,5.82,54.3,6,54.17Z" transform="translate(-0.49 -0.21)"/><path class="cls-17" d="M6.49,57.49a12,12,0,0,0-1,.71V57a12,12,0,0,1,1-.71Z" transform="translate(-0.49 -0.21)"/><path class="cls-29" d="M6,61.82a.22.22,0,0,0,.22-.23A.22.22,0,0,0,6,61.37a.23.23,0,1,0,0,.45Z" transform="translate(-0.49 -0.21)"/><path class="cls-29" d="M6,61.82c.07,0,.14-.1.14-.23s-.07-.22-.14-.22-.15.1-.15.22S5.9,61.82,6,61.82Z" transform="translate(-0.49 -0.21)"/><path class="cls-29" d="M6.46,61.29h-1a.64.64,0,0,1,.24.35h.49A.64.64,0,0,1,6.46,61.29Z" transform="translate(-0.49 -0.21)"/><path class="cls-29" d="M5.67,61.5a.35.35,0,0,1,.06.14h.49a.35.35,0,0,1,.06-.14H5.67Z" transform="translate(-0.49 -0.21)"/><path class="cls-30" d="M6.25,61.29H5.7a.67.67,0,0,1,.13.35h.29A.67.67,0,0,1,6.25,61.29Z" transform="translate(-0.49 -0.21)"/><path class="cls-30" d="M5.8,61.5a.32.32,0,0,1,0,.14h.29a.32.32,0,0,1,0-.14H5.8Z" transform="translate(-0.49 -0.21)"/><rect class="cls-31" x="3.69" y="59.3" width="3.6" height="0.13"/><rect class="cls-31" x="4.39" y="59.3" width="2.2" height="0.13"/><path class="cls-29" d="M7.46,59.05h-3l-.09.19a.59.59,0,0,1-.13.19.24.24,0,0,1-.1.08h3.6A.85.85,0,0,1,7.46,59.05Z" transform="translate(-0.49 -0.21)"/><path class="cls-29" d="M4.17,59.64H7.78v.07c-1,.23-.48.87-1.34.88H5.51c-.86,0-.33-.65-1.34-.88Z" transform="translate(-0.49 -0.21)"/><path class="cls-29" d="M4.87,59.64H7.08c-.77.16-.39.94-.87,1H5.74C5.26,60.58,5.64,59.8,4.87,59.64Z" transform="translate(-0.49 -0.21)"/><path class="cls-29" d="M6.82,59.05H5.14a1.8,1.8,0,0,0,0,.19,1.07,1.07,0,0,1-.07.19.18.18,0,0,1-.06.08H7A1,1,0,0,1,6.82,59.05Z" transform="translate(-0.49 -0.21)"/><path class="cls-29" d="M6.33,60.72H5.62a1.42,1.42,0,0,1-.19.46h1.1A.89.89,0,0,1,6.33,60.72Z" transform="translate(-0.49 -0.21)"/><path class="cls-30" d="M6.16,60.72H5.8a2.1,2.1,0,0,1-.18.46h.71A1.08,1.08,0,0,1,6.16,60.72Z" transform="translate(-0.49 -0.21)"/><rect class="cls-32" x="4.99" y="60.38" width="1" height="0.13"/><rect class="cls-36" x="4.85" y="60.96" width="1.27" height="0.13"/><rect class="cls-36" x="5.1" y="60.96" width="0.78" height="0.13"/><rect class="cls-31" x="6.71" y="54.71" width="1.18" height="0.38"/><rect class="cls-31" x="6.71" y="57.74" width="1.18" height="0.38"/><rect class="cls-15" x="9.59" y="53.06" width="2.66" height="31.73"/><rect class="cls-39" x="12.15" y="23.22" width="67.91" height="12.16"/><rect class="cls-40" x="13.43" y="35.19" width="65.97" height="1.46"/><rect class="cls-39" x="13.43" y="35.19" width="65.97" height="0.49"/><path class="cls-8" d="M67.74,40.15h8.18v6a4.15,4.15,0,0,1-8.18.15V40.15Zm16.57,0h8.4v6a4.28,4.28,0,0,1-8.4.15V40.15Zm-75.43,0H.49v6a4.28,4.28,0,0,0,8.39.15V40.15Zm16.58,0H17.27v6a4.16,4.16,0,0,0,8.19.15V40.15Zm16.45,0H33.73v5.91a4.16,4.16,0,0,0,8.18.15V40.15Zm9.38,0h8.17v5.91a4.16,4.16,0,0,1-8.17.15Z" transform="translate(-0.49 -0.21)"/><path class="cls-41" d="M84.31,40.15H75.92v6a4.28,4.28,0,0,0,8.39.15V40.15Zm-75.43,0h8.39v6a4.28,4.28,0,0,1-8.39.15V40.15Zm16.58,0h8.27v5.91a4.22,4.22,0,0,1-8.27.15V40.15Zm16.46,0h9.36v5.91a4.92,4.92,0,0,1-9.36.15V40.15Zm25.81,0H59.47v5.91a4.21,4.21,0,0,0,8.26.15Z" transform="translate(-0.49 -0.21)"/><path class="cls-42" d="M77.58,36.18H69.3l6.2,4h8.84c-3.15-.52-6.87-2.12-6.76-4Zm-62,0H23.9l-6.09,4h-9c3.15-.52,6.88-2.12,6.77-4Zm13,0h8.27a7,7,0,0,1-3.21,4H25.41l3.21-4Zm22.57,0h-8l-1.19,4h9.23v-4Zm13.39,0H56.3a7,7,0,0,0,3.21,4h8.28Z" transform="translate(-0.49 -0.21)"/><path class="cls-43" d="M8.77,36.18H16.2c-.89,2-3.27,3.24-6.75,4h-9c3.15-.52,8.39-2.12,8.28-4Zm75.65,0H77c.89,2,3.27,3.24,6.74,4h9c-3.16-.52-8.4-2.12-8.29-4Zm-20.73,0h7.24c.89,1.72,2.89,2.89,5,4H67.69a10.8,10.8,0,0,1-4-4Zm-34.19,0H22.27c-.89,1.72-2.89,2.89-5.05,4H25.5a10.73,10.73,0,0,0,4-4Zm13.64,0H34.87l-1.19,4H42l1.18-4Zm6.91,0h8.28l1.18,4H51.23Z" transform="translate(-0.49 -0.21)"/><path class="cls-44" d="M77.58,36.18H69.3l3.18,2H79c-.89-.6-1.46-1.3-1.41-2Zm-63.37,2h6.56l3.13-2H15.62c0,.74-.52,1.44-1.41,2Zm12.76,0h8.89a6.33,6.33,0,0,0,1-2H28.62l-1.65,2Zm15.57,0h8.65v-2h-8l-.61,2Zm14.8,0h8.89l-1.65-2H56.3A6.35,6.35,0,0,0,57.34,38.22Z" transform="translate(-0.49 -0.21)"/><path class="cls-8" d="M8.77,36.18H16.2a5.08,5.08,0,0,1-1.76,2H6.84c1.18-.6,2-1.3,1.93-2Zm11.7,2H28a9.4,9.4,0,0,0,1.52-2H22.27a6.43,6.43,0,0,1-1.8,2Zm13.79,0h8.28l.6-2H34.87l-.61,2Zm16.4,0h8.28l-.61-2H50.05l.61,2Zm14.55,0h7.52a6.19,6.19,0,0,1-1.8-2H63.69a9.74,9.74,0,0,0,1.52,2Zm13.54,0h7.61c-1.18-.6-2-1.3-1.94-2H77A5.05,5.05,0,0,0,78.75,38.22Z" transform="translate(-0.49 -0.21)"/><path class="cls-45" d="M77.58,36.18H69.3l1.84,1.18H78a1.68,1.68,0,0,1-.43-1.18Zm-62.4,1.18H22.1l1.8-1.18H15.62a1.74,1.74,0,0,1-.44,1.18Zm12.49,0h8.74a6.08,6.08,0,0,0,.48-1.18H28.62l-.95,1.18Zm15.13,0h8.39V36.18h-8l-.35,1.18Zm14,0h8.74l-1-1.18H56.3A6.82,6.82,0,0,0,56.79,37.36Z" transform="translate(-0.49 -0.21)"/><path class="cls-46" d="M8.77,36.18H16.2a4.32,4.32,0,0,1-.78,1.18H8.15a1.52,1.52,0,0,0,.62-1.18Zm12.65,1.18h7.31a9.53,9.53,0,0,0,.77-1.18H22.27a5.12,5.12,0,0,1-.85,1.18Zm13.1,0h8.27l.35-1.18H34.87l-.35,1.18Zm15.88,0h8.28l-.35-1.18H50.05l.35,1.18Zm14.07,0h7.3a5.08,5.08,0,0,1-.84-1.18H63.69a9.62,9.62,0,0,0,.78,1.18Zm13.3,0h7.28a1.53,1.53,0,0,1-.63-1.18H77A4.53,4.53,0,0,0,77.77,37.36Z" transform="translate(-0.49 -0.21)"/><path class="cls-47" d="M77.58,36.18H69.3l.85.55h7.5a1.46,1.46,0,0,1-.07-.55Zm-62,.55h7.52l.84-.55H15.62a1.47,1.47,0,0,1-.08.55Zm12.63,0H36.7a5.1,5.1,0,0,0,.19-.55H28.62l-.45.55Zm14.82,0h8.2v-.55h-8l-.16.55Zm13.5,0H65l-.44-.55H56.3C56.36,36.37,56.42,36.55,56.49,36.73Z" transform="translate(-0.49 -0.21)"/><path class="cls-48" d="M8.77,36.18H16.2a5.86,5.86,0,0,1-.3.55H8.65a1.08,1.08,0,0,0,.12-.55Zm13.16.55h7.24a6.16,6.16,0,0,0,.33-.55H22.27a4.53,4.53,0,0,1-.34.55Zm12.77,0H43l.16-.55H34.87l-.17.55Zm15.51,0h8.28l-.16-.55H50.05l.16.55Zm13.81,0h7.24a6.16,6.16,0,0,1-.33-.55H63.69c.11.19.21.37.33.55Zm13.28,0h7.24a1.08,1.08,0,0,1-.12-.55H77A4.21,4.21,0,0,0,77.3,36.73Z" transform="translate(-0.49 -0.21)"/><path class="cls-42" d="M38.47,12.38c8,.87,16.92,3.07,23.63,7.69a20.93,20.93,0,0,1,5.54,5.36,8.12,8.12,0,0,1,1.6,5.24,2.57,2.57,0,0,1-2.66,2.12H25.34a2.62,2.62,0,0,1-2.63-2,3.39,3.39,0,0,1,.51-2.16,22.25,22.25,0,0,1,1.4-2.34c1.36-2,2.88-4,4.44-6A58.66,58.66,0,0,1,34,14.94C35,14,36.93,12.21,38.47,12.38Z" transform="translate(-0.49 -0.21)"/><path class="cls-41" d="M38.79,12.81c7.65.83,16.2,2.94,22.62,7.37a20,20,0,0,1,5.32,5.13,7.82,7.82,0,0,1,1.52,5,2.45,2.45,0,0,1-2.55,2H26.22a2.52,2.52,0,0,1-2.53-1.9,3.26,3.26,0,0,1,.49-2.07,24.1,24.1,0,0,1,1.34-2.24,69.22,69.22,0,0,1,4.26-5.7,53.9,53.9,0,0,1,4.72-5.18C35.49,14.32,37.31,12.65,38.79,12.81Z" transform="translate(-0.49 -0.21)"/><path class="cls-8" d="M38.33,13.73c21.34,2.32,30.13,12,29.57,16.78a1.23,1.23,0,0,1-1.32.93H25.34A1.29,1.29,0,0,1,24,30.51C23.64,28.8,35.54,13.42,38.33,13.73Z" transform="translate(-0.49 -0.21)"/><path class="cls-8" d="M39,13.81c19.17,2.26,28,10.48,28.81,15.48H29.5a1.27,1.27,0,0,1-1.32-.93C27.88,27.08,34.53,18.07,39,13.81Z" transform="translate(-0.49 -0.21)"/><polygon class="cls-49" points="29.32 36.12 44.88 29.34 60.45 22.55 52.75 14.29 45.05 6.03 37.18 21.07 29.32 36.12"/><polygon class="cls-50" points="29.32 36.12 42.95 27.26 56.58 18.41 52.75 14.29 48.91 10.18 39.12 23.15 29.32 36.12"/><path class="cls-51" d="M55.42,16.84,53.24,14.5,47.06,7.87l-2.91,1L37.67,21.29,35,26.42a57.48,57.48,0,0,0,6.49-.12c6.3-.47,11.26-3.53,13.76-9C55.29,17.12,55.35,17,55.42,16.84Z" transform="translate(-0.49 -0.21)"/><path class="cls-52" d="M47.32,25l4.64-3a15.24,15.24,0,0,0,3.27-4.68c.06-.14.12-.28.19-.42L53.24,14.5,49.4,10.39l-9.8,13-2.34,3.1c1.34,0,2.74-.05,4.21-.16A18.84,18.84,0,0,0,47.32,25Z" transform="translate(-0.49 -0.21)"/><path class="cls-8" d="M65.61,3.41a9.27,9.27,0,1,1-13.1-.47A9.26,9.26,0,0,1,65.61,3.41Z" transform="translate(-0.49 -0.21)"/><path class="cls-42" d="M64.4,4.54a7.59,7.59,0,0,1,2,5A8,8,0,0,0,53.13,5.34a7.89,7.89,0,0,0-1.46,1.83,7.46,7.46,0,0,1,2-3A7.61,7.61,0,0,1,64.4,4.54Z" transform="translate(-0.49 -0.21)"/><path class="cls-53" d="M48.9.22a9.27,9.27,0,1,1-8.81,9.7A9.27,9.27,0,0,1,48.9.22Z" transform="translate(-0.49 -0.21)"/><path class="cls-42" d="M49,1.88a7.6,7.6,0,0,1,5.09,1.64A8,8,0,0,0,42.31,11a8.31,8.31,0,0,0,.45,2.3A7.62,7.62,0,0,1,49,1.88Z" transform="translate(-0.49 -0.21)"/><path class="cls-54" d="M48.38.71a6.5,6.5,0,1,0,6.08,6.9A6.5,6.5,0,0,0,48.38.71Z" transform="translate(-0.49 -0.21)"/><path class="cls-42" d="M49,1.88a7.59,7.59,0,0,1,3.56.69A6.14,6.14,0,0,1,53,3,8,8,0,0,0,42.31,10.4a6.54,6.54,0,0,1-.56-1.3A7.6,7.6,0,0,1,49,1.88Z" transform="translate(-0.49 -0.21)"/><path class="cls-55" d="M49.58,9.25A9.24,9.24,0,0,1,59.45.48a7.42,7.42,0,0,1,4.74,7.4c-.26,4.09-4.58,6.21-7.88,6.94S50.35,12.29,49.58,9.25Z" transform="translate(-0.49 -0.21)"/><path class="cls-42" d="M63.85,5.15a8,8,0,0,0-10.72.19,7.89,7.89,0,0,0-1.46,1.83,7.46,7.46,0,0,1,2-3A7.61,7.61,0,0,1,63,3.36,7.52,7.52,0,0,1,63.85,5.15Z" transform="translate(-0.49 -0.21)"/><path class="cls-41" d="M58,9.45a9.65,9.65,0,1,0,9,10.24A9.66,9.66,0,0,0,58,9.45Z" transform="translate(-0.49 -0.21)"/><path class="cls-53" d="M55.53,10.87a6.5,6.5,0,1,0,6.08,6.9A6.52,6.52,0,0,0,55.53,10.87Z" transform="translate(-0.49 -0.21)"/><path class="cls-56" d="M57.91,11.18a7.88,7.88,0,0,0-5.33,1.63,8.35,8.35,0,0,1,12.13,8,8.55,8.55,0,0,1-.5,2.38,7.93,7.93,0,0,0-6.3-12Z" transform="translate(-0.49 -0.21)"/></svg>