<svg id="Layer_1" data-name="Layer 1" xmlns="http://www.w3.org/2000/svg" viewBox="0 0 90 90"><defs><style>.cls-1{fill:#ec9331;}.cls-2{fill:#5c3c2d;}.cls-3{fill:#9b240b;}.cls-4{fill:#fcc56b;}.cls-5{fill:#7f533e;}.cls-6{fill:#ffd674;}</style></defs><rect class="cls-1" x="12.64" y="0.51" width="64.72" height="88.98"/><path class="cls-2" d="M58.75,94.49v-18a8.75,8.75,0,0,0-17.5,0v18Z" transform="translate(-5 -5)"/><rect class="cls-3" x="17.98" y="5.69" width="9.25" height="9.25"/><rect class="cls-3" x="32.91" y="5.69" width="9.25" height="9.25"/><rect class="cls-3" x="17.98" y="19.32" width="9.25" height="9.25"/><rect class="cls-3" x="47.84" y="19.32" width="9.25" height="9.25"/><rect class="cls-3" x="17.98" y="32.94" width="9.25" height="9.25"/><rect class="cls-3" x="47.84" y="32.94" width="9.25" height="9.25"/><rect class="cls-3" x="62.76" y="5.69" width="9.25" height="9.25"/><rect class="cls-3" x="62.76" y="32.94" width="9.25" height="9.25"/><rect class="cls-3" x="32.91" y="32.94" width="9.25" height="9.25"/><rect class="cls-3" x="17.98" y="46.57" width="9.25" height="9.25"/><rect class="cls-3" x="47.84" y="46.57" width="9.25" height="9.25"/><rect class="cls-3" x="62.76" y="46.57" width="9.25" height="9.25"/><rect class="cls-4" x="47.84" y="5.69" width="9.25" height="9.25"/><rect class="cls-4" x="32.91" y="19.32" width="9.25" height="9.25"/><rect class="cls-4" x="62.76" y="19.32" width="9.25" height="9.25"/><rect class="cls-4" x="32.91" y="46.57" width="9.25" height="9.25"/><rect class="cls-5" x="17.98" y="62.69" width="13.96" height="26.8"/><rect class="cls-5" x="58.06" y="62.69" width="13.96" height="26.8"/><path class="cls-1" d="M55.87,94.49V76.6a5.87,5.87,0,0,0-11.74,0V94.49Z" transform="translate(-5 -5)"/><path class="cls-2" d="M94.49,94h-5.3V92.72a.51.51,0,0,0-1,0V94H82.86V5.51a.5.5,0,0,0-.5-.51H17.64a.51.51,0,0,0-.51.51V94H11.82V92.72a.5.5,0,0,0-.5-.5.5.5,0,0,0-.51.5V94H5.51a.5.5,0,0,0-.51.5.51.51,0,0,0,.51.51h89a.51.51,0,0,0,0-1Zm-64,0V81.6h6V94Zm6-13.39h-6V68.2h6Zm-7,0h-6V68.2h6Zm-6,1h6V94h-6ZM49.49,94H44.63V76.6a5.37,5.37,0,0,1,4.86-5.34Zm1,0V71.26a5.37,5.37,0,0,1,4.86,5.34V94H50.51Zm5.87,0V76.6a6.38,6.38,0,0,0-12.76,0V94H41.76V76.44a8.24,8.24,0,0,1,16.48,0V94Zm14.17,0V81.6h6V94Zm6-13.39h-6V68.2h6Zm-7,0h-6V68.2h6Zm-6,1h6V94h-6ZM77.53,94V67.69a.51.51,0,0,0-.51-.5h-14a.5.5,0,0,0-.5.5V94H59.25V76.44a9.25,9.25,0,0,0-18.5,0V94H37.44V67.69a.5.5,0,0,0-.5-.5H23a.5.5,0,0,0-.5.5V94H18.15V6h63.7V94Z" transform="translate(-5 -5)"/><path class="cls-2" d="M32.24,10.19H23a.5.5,0,0,0-.5.5v9.25a.5.5,0,0,0,.5.51h9.26a.51.51,0,0,0,.5-.51V10.69A.5.5,0,0,0,32.24,10.19Zm-.51,9.25H23.49V11.2h8.24Z" transform="translate(-5 -5)"/><path class="cls-2" d="M62.09,10.19H52.84a.5.5,0,0,0-.51.5v9.25a.51.51,0,0,0,.51.51h9.25a.51.51,0,0,0,.51-.51V10.69A.5.5,0,0,0,62.09,10.19Zm-.51,9.25H53.34V11.2h8.24Z" transform="translate(-5 -5)"/><path class="cls-2" d="M47.16,10.19H37.91a.5.5,0,0,0-.51.5v9.25a.51.51,0,0,0,.51.51h9.25a.51.51,0,0,0,.51-.51V10.69A.5.5,0,0,0,47.16,10.19Zm-.5,9.25H38.42V11.2h8.24Z" transform="translate(-5 -5)"/><path class="cls-2" d="M32.24,23.81H23a.5.5,0,0,0-.5.51v9.25a.5.5,0,0,0,.5.51h9.26a.51.51,0,0,0,.5-.51V24.32A.51.51,0,0,0,32.24,23.81Zm-.51,9.25H23.49V24.82h8.24Z" transform="translate(-5 -5)"/><path class="cls-2" d="M62.09,23.81H52.84a.51.51,0,0,0-.51.51v9.25a.51.51,0,0,0,.51.51h9.25a.51.51,0,0,0,.51-.51V24.32A.51.51,0,0,0,62.09,23.81Zm-.51,9.25H53.34V24.82h8.24Z" transform="translate(-5 -5)"/><path class="cls-2" d="M47.16,23.81H37.91a.51.51,0,0,0-.51.51v9.25a.51.51,0,0,0,.51.51h9.25a.51.51,0,0,0,.51-.51V24.32A.51.51,0,0,0,47.16,23.81Zm-.5,9.25H38.42V24.82h8.24Z" transform="translate(-5 -5)"/><path class="cls-2" d="M32.24,37.44H23a.5.5,0,0,0-.5.5v9.25a.5.5,0,0,0,.5.51h9.26a.51.51,0,0,0,.5-.51V37.94A.5.5,0,0,0,32.24,37.44Zm-.51,9.25H23.49V38.45h8.24Z" transform="translate(-5 -5)"/><path class="cls-2" d="M62.09,37.44H52.84a.5.5,0,0,0-.51.5v9.25a.51.51,0,0,0,.51.51h9.25a.51.51,0,0,0,.51-.51V37.94A.5.5,0,0,0,62.09,37.44Zm-.51,9.25H53.34V38.45h8.24Z" transform="translate(-5 -5)"/><path class="cls-2" d="M77,10.19H67.76a.5.5,0,0,0-.5.5v9.25a.51.51,0,0,0,.5.51H77a.5.5,0,0,0,.5-.51V10.69A.49.49,0,0,0,77,10.19Zm-.51,9.25H68.27V11.2h8.24Z" transform="translate(-5 -5)"/><path class="cls-2" d="M77,23.81H67.76a.51.51,0,0,0-.5.51v9.25a.51.51,0,0,0,.5.51H77a.5.5,0,0,0,.5-.51V24.32A.5.5,0,0,0,77,23.81Zm-.51,9.25H68.27V24.82h8.24Z" transform="translate(-5 -5)"/><path class="cls-2" d="M77,37.44H67.76a.5.5,0,0,0-.5.5v9.25a.51.51,0,0,0,.5.51H77a.5.5,0,0,0,.5-.51V37.94A.49.49,0,0,0,77,37.44Zm-.51,9.25H68.27V38.45h8.24Z" transform="translate(-5 -5)"/><path class="cls-2" d="M47.16,37.44H37.91a.5.5,0,0,0-.51.5v9.25a.51.51,0,0,0,.51.51h9.25a.51.51,0,0,0,.51-.51V37.94A.5.5,0,0,0,47.16,37.44Zm-.5,9.25H38.42V38.45h8.24Z" transform="translate(-5 -5)"/><path class="cls-2" d="M32.24,51.06H23a.5.5,0,0,0-.5.51v9.25a.5.5,0,0,0,.5.51h9.26a.51.51,0,0,0,.5-.51V51.57A.51.51,0,0,0,32.24,51.06Zm-.51,9.25H23.49V52.07h8.24Z" transform="translate(-5 -5)"/><path class="cls-2" d="M62.09,51.06H52.84a.51.51,0,0,0-.51.51v9.25a.51.51,0,0,0,.51.51h9.25a.51.51,0,0,0,.51-.51V51.57A.51.51,0,0,0,62.09,51.06Zm-.51,9.25H53.34V52.07h8.24Z" transform="translate(-5 -5)"/><path class="cls-2" d="M77,51.06H67.76a.51.51,0,0,0-.5.51v9.25a.51.51,0,0,0,.5.51H77a.5.5,0,0,0,.5-.51V51.57A.5.5,0,0,0,77,51.06Zm-.51,9.25H68.27V52.07h8.24Z" transform="translate(-5 -5)"/><path class="cls-2" d="M47.16,51.06H37.91a.51.51,0,0,0-.51.51v9.25a.51.51,0,0,0,.51.51h9.25a.51.51,0,0,0,.51-.51V51.57A.51.51,0,0,0,47.16,51.06Zm-.5,9.25H38.42V52.07h8.24Z" transform="translate(-5 -5)"/><path class="cls-6" d="M11.32,57.56a.51.51,0,0,0-.51.51v3.47a.51.51,0,0,0,.51.5.5.5,0,0,0,.51-.5V58.07A.51.51,0,0,0,11.32,57.56Z" transform="translate(-5 -5)"/><path class="cls-6" d="M11.32,64.5a.5.5,0,0,0-.51.5v3.47a.51.51,0,0,0,.51.5.5.5,0,0,0,.51-.5V65A.5.5,0,0,0,11.32,64.5Z" transform="translate(-5 -5)"/><path class="cls-6" d="M11.32,85.29a.5.5,0,0,0-.51.5v3.47a.51.51,0,0,0,1,0V85.79A.5.5,0,0,0,11.32,85.29Z" transform="translate(-5 -5)"/><path class="cls-6" d="M11.32,78.36a.5.5,0,0,0-.51.5v3.47a.51.51,0,0,0,.51.5.5.5,0,0,0,.51-.5V78.86A.5.5,0,0,0,11.32,78.36Z" transform="translate(-5 -5)"/><path class="cls-6" d="M11.32,71.43a.5.5,0,0,0-.51.5V75.4a.51.51,0,0,0,.51.5.5.5,0,0,0,.51-.5V71.93A.5.5,0,0,0,11.32,71.43Z" transform="translate(-5 -5)"/><path class="cls-6" d="M11.32,52.33a.51.51,0,0,0-.51.51v1.77a.51.51,0,0,0,.51.5.5.5,0,0,0,.51-.5V52.84A.51.51,0,0,0,11.32,52.33Z" transform="translate(-5 -5)"/><path class="cls-6" d="M88.68,64.5a.5.5,0,0,0-.51.5v3.47a.51.51,0,0,0,.51.5.5.5,0,0,0,.51-.5V65A.51.51,0,0,0,88.68,64.5Z" transform="translate(-5 -5)"/><path class="cls-6" d="M88.68,71.43a.5.5,0,0,0-.51.5V75.4a.51.51,0,0,0,.51.5.5.5,0,0,0,.51-.5V71.93A.51.51,0,0,0,88.68,71.43Z" transform="translate(-5 -5)"/><path class="cls-6" d="M88.68,57.56a.51.51,0,0,0-.51.51v3.47a.51.51,0,0,0,.51.5.5.5,0,0,0,.51-.5V58.07A.52.52,0,0,0,88.68,57.56Z" transform="translate(-5 -5)"/><path class="cls-6" d="M88.68,78.36a.5.5,0,0,0-.51.5v3.47a.51.51,0,0,0,.51.5.5.5,0,0,0,.51-.5V78.86A.51.51,0,0,0,88.68,78.36Z" transform="translate(-5 -5)"/><path class="cls-6" d="M88.68,85.29a.5.5,0,0,0-.51.5v3.47a.51.51,0,0,0,1,0V85.79A.51.51,0,0,0,88.68,85.29Z" transform="translate(-5 -5)"/><path class="cls-6" d="M88.68,52.33a.51.51,0,0,0-.51.51v1.77a.51.51,0,0,0,.51.5.5.5,0,0,0,.51-.5V52.84A.52.52,0,0,0,88.68,52.33Z" transform="translate(-5 -5)"/></svg>