<svg id="Layer_1" data-name="Layer 1" xmlns="http://www.w3.org/2000/svg" viewBox="0 0 212.26 141.58"><defs><style>.cls-1{font-size:21px;fill:#fff;font-family:AbrilFatface-Regular, Abril Fatface;}.cls-2{letter-spacing:-0.04em;}.cls-3{letter-spacing:-0.04em;}.cls-4{letter-spacing:-0.05em;}.cls-5{letter-spacing:0em;}.cls-6{fill:#ededed;}.cls-7{fill:#dadada;}.cls-8{fill:#bf202b;}.cls-9{fill:#ab202a;}.cls-10{fill:#f8bd33;}.cls-11{fill:#ffe578;}.cls-12{fill:#eb3b42;}.cls-13{fill:#d53b3d;}.cls-14{fill:#64dfe4;}.cls-15{fill:#d43136;}</style></defs><text class="cls-1" transform="translate(62.73 135.47)">R<tspan class="cls-2" x="15.04" y="0">E</tspan><tspan x="27.3" y="0">VI</tspan><tspan class="cls-3" x="49.14" y="0">E</tspan><tspan class="cls-4" x="61.4" y="0">W</tspan><tspan class="cls-5" x="81.67" y="0">S</tspan></text><polygon class="cls-6" points="174.16 73.18 105.94 73.18 37.71 73.18 26.75 115.95 105.94 115.95 185.12 115.95 174.16 73.18"/><path class="cls-7" d="M73.15,160.28c0,.19,0,.39,0,.58,0,4,2.35,7.19,5.24,7.19s5.24-3.22,5.24-7.19c0-.19,0-.39,0-.58Z" transform="translate(-3.74 -87.1)"/><path class="cls-7" d="M83.63,160.28c0,.19,0,.39,0,.58,0,4,2.34,7.19,5.24,7.19s5.23-3.22,5.23-7.19c0-.19,0-.39,0-.58Z" transform="translate(-3.74 -87.1)"/><path class="cls-7" d="M115,160.86c0-.19,0-.39,0-.58H104.58c0,.19,0,.39,0,.58,0,4,2.35,7.19,5.24,7.19S115,164.83,115,160.86Z" transform="translate(-3.74 -87.1)"/><path class="cls-7" d="M52.2,160.28c0,.19,0,.39,0,.58,0,4,2.34,7.19,5.24,7.19s5.23-3.22,5.23-7.19c0-.19,0-.39,0-.58Z" transform="translate(-3.74 -87.1)"/><path class="cls-7" d="M94.11,160.28a5.63,5.63,0,0,0,0,.58c0,4,2.35,7.19,5.24,7.19s5.24-3.22,5.24-7.19c0-.19,0-.39,0-.58Z" transform="translate(-3.74 -87.1)"/><path class="cls-7" d="M41.72,160.28c0,.19,0,.39,0,.58,0,4,2.35,7.19,5.24,7.19s5.24-3.22,5.24-7.19c0-.19,0-.39,0-.58Z" transform="translate(-3.74 -87.1)"/><path class="cls-7" d="M62.67,160.28c0,.19,0,.39,0,.58,0,4,2.35,7.19,5.24,7.19s5.24-3.22,5.24-7.19c0-.19,0-.39,0-.58Z" transform="translate(-3.74 -87.1)"/><path class="cls-7" d="M141.23,168.05c2.89,0,5.24-3.22,5.24-7.19,0-.19,0-.39,0-.58H136c0,.19,0,.39,0,.58C136,164.83,138.34,168.05,141.23,168.05Z" transform="translate(-3.74 -87.1)"/><path class="cls-7" d="M130.75,168.05c2.9,0,5.24-3.22,5.24-7.19,0-.19,0-.39,0-.58H125.54a5.63,5.63,0,0,0,0,.58C125.51,164.83,127.86,168.05,130.75,168.05Z" transform="translate(-3.74 -87.1)"/><path class="cls-7" d="M172.66,168.05c2.89,0,5.24-3.22,5.24-7.19,0-.19,0-.39,0-.58H167.44c0,.19,0,.39,0,.58C167.42,164.83,169.77,168.05,172.66,168.05Z" transform="translate(-3.74 -87.1)"/><path class="cls-7" d="M120.28,168.05c2.89,0,5.23-3.22,5.23-7.19,0-.19,0-.39,0-.58H115.06c0,.19,0,.39,0,.58C115,164.83,117.38,168.05,120.28,168.05Z" transform="translate(-3.74 -87.1)"/><path class="cls-7" d="M151.71,168.05c2.89,0,5.23-3.22,5.23-7.19,0-.19,0-.39,0-.58H146.49c0,.19,0,.39,0,.58C146.47,164.83,148.81,168.05,151.71,168.05Z" transform="translate(-3.74 -87.1)"/><path class="cls-7" d="M162.18,168.05c2.9,0,5.24-3.22,5.24-7.19,0-.19,0-.39,0-.58H157a5.63,5.63,0,0,0,0,.58C156.94,164.83,159.29,168.05,162.18,168.05Z" transform="translate(-3.74 -87.1)"/><polygon class="cls-8" points="123.56 73.18 105.94 73.18 103.8 73.18 87.64 73.18 77.88 115.95 103.8 115.95 105.94 115.95 134.12 115.95 123.56 73.18"/><path class="cls-9" d="M137.85,203.06,127.3,160.28H96.55c-1.31,6.19-2.5,12.39-4.2,18.57,6.28-1.21,12.88,2,16.82,7.06,3.76,4.81,5.34,11,5.55,17.15Z" transform="translate(-3.74 -87.1)"/><rect class="cls-10" x="105.59" y="0.26" width="0.84" height="15.06"/><path class="cls-11" d="M111.5,88.87a1.77,1.77,0,1,1-1.76-1.77A1.76,1.76,0,0,1,111.5,88.87Z" transform="translate(-3.74 -87.1)"/><path class="cls-6" d="M109.67,160.28s-7.36,16.6-14.81,21.39-9.27,4-9.27,4a16.49,16.49,0,0,1,4,7.27,39.15,39.15,0,0,1,1.16,10.15h-9.1l9.76-42.78Z" transform="translate(-3.74 -87.1)"/><path class="cls-12" d="M100.51,160.31a49.71,49.71,0,0,1-14.74,24.56l-.13.58c0,.08-.09.12,0,.19,1,.22,3.08,0,9.27-4,7.32-4.7,14.56-20.81,14.8-21.36Z" transform="translate(-3.74 -87.1)"/><path class="cls-12" d="M86,186a67.87,67.87,0,0,1,.81,17h3.94a39.15,39.15,0,0,0-1.16-10.15A17.44,17.44,0,0,0,86,186Z" transform="translate(-3.74 -87.1)"/><polygon class="cls-12" points="36.85 115.95 26.75 115.95 37.58 73.18 47.69 73.18 36.85 115.95"/><polygon class="cls-12" points="57.14 115.95 47.04 115.95 57.87 73.18 67.97 73.18 57.14 115.95"/><polygon class="cls-12" points="77.42 115.95 67.32 115.95 78.15 73.18 88.25 73.18 77.42 115.95"/><path class="cls-6" d="M109.8,160.28s7.37,16.6,14.81,21.39,9.27,4,9.27,4a16.49,16.49,0,0,0-4,7.27,39.66,39.66,0,0,0-1.16,10.15h9.1l-9.76-42.78Z" transform="translate(-3.74 -87.1)"/><path class="cls-7" d="M120.28,168.05c2.89,0,5.23-3.22,5.23-7.19,0-.19,0-.39,0-.58H115.06c0,.19,0,.39,0,.58C115,164.83,117.38,168.05,120.28,168.05Z" transform="translate(-3.74 -87.1)"/><path class="cls-7" d="M129.84,167.93l-1.75-7.65h-2.55a5.63,5.63,0,0,0,0,.58C125.51,164.4,127.38,167.33,129.84,167.93Z" transform="translate(-3.74 -87.1)"/><path class="cls-7" d="M115,160.86c0-.19,0-.39,0-.58H109.8S111,163,113,166.59A8.28,8.28,0,0,0,115,160.86Z" transform="translate(-3.74 -87.1)"/><path class="cls-7" d="M99.32,168.05c2.9,0,5.24-3.22,5.24-7.19,0-.19,0-.39,0-.58H94.11a5.63,5.63,0,0,0,0,.58C94.08,164.83,96.43,168.05,99.32,168.05Z" transform="translate(-3.74 -87.1)"/><path class="cls-7" d="M109.67,160.28h-5.09c0,.19,0,.39,0,.58a8.42,8.42,0,0,0,2,5.65C108.48,163,109.67,160.28,109.67,160.28Z" transform="translate(-3.74 -87.1)"/><path class="cls-7" d="M94.08,160.86c0-.19,0-.39,0-.58H91.38L89.63,168C92.15,167.43,94.08,164.46,94.08,160.86Z" transform="translate(-3.74 -87.1)"/><path class="cls-12" d="M119,160.31a47.63,47.63,0,0,0,14.73,24.56l.14.58c-.05.08.09.12,0,.19-.61.28-3.08,0-9.27-4-7.32-4.7-14.55-20.81-14.8-21.36Z" transform="translate(-3.74 -87.1)"/><path class="cls-12" d="M133.5,186a68.34,68.34,0,0,0-.81,17h-3.94a39.66,39.66,0,0,1,1.16-10.15A17.44,17.44,0,0,1,133.5,186Z" transform="translate(-3.74 -87.1)"/><polygon class="cls-12" points="175.14 115.95 185.24 115.95 174.41 73.18 164.31 73.18 175.14 115.95"/><polygon class="cls-12" points="154.86 115.95 164.96 115.95 154.13 73.18 144.03 73.18 154.86 115.95"/><polygon class="cls-12" points="134.57 115.95 144.68 115.95 133.84 73.18 123.74 73.18 134.57 115.95"/><path class="cls-12" d="M100.51,160.31a49.71,49.71,0,0,1-14.74,24.56l-.13.58c0,.08-.09.12,0,.19,1,.22,3.08,0,9.27-4,7.32-4.7,14.56-20.81,14.8-21.36Z" transform="translate(-3.74 -87.1)"/><path class="cls-12" d="M119,160.31a47.63,47.63,0,0,0,14.73,24.56l.14.58c-.05.08.09.12,0,.19-.61.28-3.08,0-9.27-4-7.32-4.7-14.55-20.81-14.8-21.36Z" transform="translate(-3.74 -87.1)"/><path class="cls-13" d="M139.44,167.61l-1.86-7.33H136c0,.19,0,.39,0,.58C136,164,137.43,166.6,139.44,167.61Z" transform="translate(-3.74 -87.1)"/><path class="cls-13" d="M109.81,160.31c.1.22,1.29,2.87,3.14,6.28a8.28,8.28,0,0,0,2.09-5.73c0-.19,0-.37,0-.55Z" transform="translate(-3.74 -87.1)"/><path class="cls-13" d="M130.75,168.05c2.9,0,5.24-3.22,5.24-7.19,0-.19,0-.39,0-.58h-8.49l1.9,7.51A4,4,0,0,0,130.75,168.05Z" transform="translate(-3.74 -87.1)"/><path class="cls-13" d="M151.71,168.05c2.89,0,5.23-3.22,5.23-7.19,0-.19,0-.39,0-.58h-9.16l1.81,7.14A4.05,4.05,0,0,0,151.71,168.05Z" transform="translate(-3.74 -87.1)"/><path class="cls-13" d="M172.66,168.05c2.89,0,5.24-3.22,5.24-7.19,0-.19,0-.39,0-.58h-9.83l1.64,6.5A4.33,4.33,0,0,0,172.66,168.05Z" transform="translate(-3.74 -87.1)"/><path class="cls-13" d="M159.59,167.1l-1.72-6.82H157a5.63,5.63,0,0,0,0,.58A7.93,7.93,0,0,0,159.59,167.1Z" transform="translate(-3.74 -87.1)"/><path class="cls-13" d="M119,160.31h-3.91c0,.18,0,.36,0,.55,0,4,2.34,7.19,5.24,7.19a3.66,3.66,0,0,0,1.18-.2A46.56,46.56,0,0,1,119,160.31Z" transform="translate(-3.74 -87.1)"/><path class="cls-13" d="M62.65,160.86c0-.19,0-.39,0-.58h-1l-1.76,6.94A7.82,7.82,0,0,0,62.65,160.86Z" transform="translate(-3.74 -87.1)"/><path class="cls-13" d="M100.51,160.31A51.54,51.54,0,0,1,98,167.79a4,4,0,0,0,1.37.26c2.9,0,5.24-3.22,5.24-7.19,0-.19,0-.37,0-.55Z" transform="translate(-3.74 -87.1)"/><path class="cls-13" d="M46.94,168.05a4.24,4.24,0,0,0,2.8-1.13l1.69-6.64H41.72c0,.19,0,.39,0,.58C41.7,164.83,44.05,168.05,46.94,168.05Z" transform="translate(-3.74 -87.1)"/><path class="cls-13" d="M67.89,168.05a4.07,4.07,0,0,0,2-.54l1.83-7.23h-9c0,.19,0,.39,0,.58C62.65,164.83,65,168.05,67.89,168.05Z" transform="translate(-3.74 -87.1)"/><path class="cls-13" d="M104.58,160.31c0,.18,0,.36,0,.55a8.42,8.42,0,0,0,2,5.65c1.83-3.38,3-6,3.1-6.2Z" transform="translate(-3.74 -87.1)"/><path class="cls-13" d="M88.85,168.05a4,4,0,0,0,1.23-.21L92,160.28H83.63c0,.19,0,.39,0,.58C83.61,164.83,86,168.05,88.85,168.05Z" transform="translate(-3.74 -87.1)"/><path class="cls-13" d="M83.61,160.86c0-.19,0-.39,0-.58h-1.7L80,167.68C82.1,166.73,83.61,164,83.61,160.86Z" transform="translate(-3.74 -87.1)"/><path class="cls-12" d="M131.12,131.12C109.8,107.44,109.8,97.19,109.8,97.19h-.13s0,10.25-21.32,33.93-47,29.16-47,29.16l68.34,0h.15l68.34,0S152.45,154.8,131.12,131.12Z" transform="translate(-3.74 -87.1)"/><polygon class="cls-6" points="106.11 10.08 99.35 73.18 105.99 73.18 106 73.18 112.65 73.18 106.11 10.08"/><path class="cls-6" d="M109.22,100.13l.15-.76c-4.07,20.71-20.52,38.81-38.82,61,3,.05,4.74-.2,7.77-.15h0c3,.05.53,0,3.56.08C90.73,149.57,108.13,120.79,109.22,100.13Z" transform="translate(-3.74 -87.1)"/><polygon class="cls-14" points="6.59 109.9 7.61 113.52 3.89 112.94 6.59 109.9"/><polygon class="cls-12" points="10.31 105.63 11.32 109.26 7.61 108.67 10.31 105.63"/><polygon class="cls-10" points="14.03 101.22 15.04 104.84 11.32 104.25 14.03 101.22"/><polygon class="cls-14" points="17.75 96.8 18.76 100.42 15.04 99.84 17.75 96.8"/><polygon class="cls-12" points="21.47 92.38 22.48 96.01 18.76 95.42 21.47 92.38"/><polygon class="cls-10" points="25.18 87.96 26.2 91.59 22.48 91 25.18 87.96"/><polygon class="cls-14" points="28.9 83.55 29.92 87.17 26.2 86.58 28.9 83.55"/><polygon class="cls-12" points="32.62 79.13 33.64 82.75 29.92 82.17 32.62 79.13"/><polygon class="cls-10" points="36.34 74.71 37.36 78.34 33.64 77.75 36.34 74.71"/><rect class="cls-12" x="-4.69" y="181.37" width="56.27" height="0.6" transform="translate(-133.6 -5.69) rotate(-49.47)"/><circle class="cls-10" cx="0.96" cy="116.1" r="0.96"/><polygon class="cls-14" points="205.67 109.9 204.66 113.52 208.37 112.94 205.67 109.9"/><polygon class="cls-12" points="201.95 105.63 200.94 109.26 204.66 108.67 201.95 105.63"/><polygon class="cls-10" points="198.23 101.22 197.22 104.84 200.94 104.25 198.23 101.22"/><polygon class="cls-14" points="194.51 96.8 193.5 100.42 197.22 99.84 194.51 96.8"/><polygon class="cls-12" points="190.79 92.38 189.78 96.01 193.5 95.42 190.79 92.38"/><polygon class="cls-10" points="187.08 87.96 186.06 91.59 189.78 91 187.08 87.96"/><polygon class="cls-14" points="183.36 83.55 182.34 87.17 186.06 86.58 183.36 83.55"/><polygon class="cls-12" points="179.64 79.13 178.62 82.75 182.34 82.17 179.64 79.13"/><polygon class="cls-10" points="175.92 74.71 174.9 78.34 178.62 77.75 175.92 74.71"/><rect class="cls-12" x="196" y="153.53" width="0.6" height="56.27" transform="translate(-74.7 84.02) rotate(-40.52)"/><circle class="cls-10" cx="211.3" cy="116.1" r="0.96"/><path class="cls-6" d="M109.93,98.24l-.54.7c-.9,3.83-4.74,14.08-21,32.18-21.33,23.68-47,29.16-47,29.16h8.59c.56-.14,1.11-.27,1.65-.43A53.36,53.36,0,0,0,66,152.64,120,120,0,0,0,110,98.74C110,98.56,110,98.39,109.93,98.24Z" transform="translate(-3.74 -87.1)"/><path class="cls-6" d="M110.25,100.06l-.15-.76c4.08,20.7,20.53,38.8,38.82,61-3,.05-4.74-.2-7.77-.15h0c-3,.05-.53,0-3.56.08C128.75,149.5,111.35,120.71,110.25,100.06Z" transform="translate(-3.74 -87.1)"/><path class="cls-6" d="M109.54,98.17l.54.7c.91,3.83,4.74,14.08,21,32.18,21.33,23.68,47,29.16,47,29.16h-8.59c-.55-.14-1.11-.27-1.65-.43a53.65,53.65,0,0,1-14.41-7.22,120,120,0,0,1-44.06-53.9C109.48,98.49,109.51,98.32,109.54,98.17Z" transform="translate(-3.74 -87.1)"/><path class="cls-15" d="M73.15,160.28c0,.16,0,.32,0,.48,0,3.26,2.35,5.91,5.24,5.91s5.24-2.65,5.24-5.91c0-.16,0-.32,0-.48Z" transform="translate(-3.74 -87.1)"/><path class="cls-15" d="M83.63,160.28c0,.16,0,.32,0,.48,0,3.26,2.34,5.91,5.24,5.91s5.23-2.65,5.23-5.91c0-.16,0-.32,0-.48Z" transform="translate(-3.74 -87.1)"/><path class="cls-15" d="M115,160.76c0-.16,0-.32,0-.48H104.58c0,.16,0,.32,0,.48,0,3.26,2.35,5.91,5.24,5.91S115,164,115,160.76Z" transform="translate(-3.74 -87.1)"/><path class="cls-15" d="M52.2,160.28c0,.16,0,.32,0,.48,0,3.26,2.34,5.91,5.24,5.91s5.23-2.65,5.23-5.91c0-.16,0-.32,0-.48Z" transform="translate(-3.74 -87.1)"/><path class="cls-15" d="M94.11,160.28a3.87,3.87,0,0,0,0,.48c0,3.26,2.35,5.91,5.24,5.91s5.24-2.65,5.24-5.91c0-.16,0-.32,0-.48Z" transform="translate(-3.74 -87.1)"/><path class="cls-15" d="M41.72,160.28c0,.16,0,.32,0,.48,0,3.26,2.35,5.91,5.24,5.91s5.24-2.65,5.24-5.91c0-.16,0-.32,0-.48Z" transform="translate(-3.74 -87.1)"/><path class="cls-15" d="M62.67,160.28c0,.16,0,.32,0,.48,0,3.26,2.35,5.91,5.24,5.91s5.24-2.65,5.24-5.91c0-.16,0-.32,0-.48Z" transform="translate(-3.74 -87.1)"/><path class="cls-15" d="M141.23,166.67c2.89,0,5.24-2.65,5.24-5.91,0-.16,0-.32,0-.48H136c0,.16,0,.32,0,.48C136,164,138.34,166.67,141.23,166.67Z" transform="translate(-3.74 -87.1)"/><path class="cls-15" d="M130.75,166.67c2.9,0,5.24-2.65,5.24-5.91,0-.16,0-.32,0-.48H125.54a3.87,3.87,0,0,0,0,.48C125.51,164,127.86,166.67,130.75,166.67Z" transform="translate(-3.74 -87.1)"/><path class="cls-15" d="M172.66,166.67c2.89,0,5.24-2.65,5.24-5.91,0-.16,0-.32,0-.48H167.44c0,.16,0,.32,0,.48C167.42,164,169.77,166.67,172.66,166.67Z" transform="translate(-3.74 -87.1)"/><path class="cls-15" d="M120.28,166.67c2.89,0,5.23-2.65,5.23-5.91,0-.16,0-.32,0-.48H115.06c0,.16,0,.32,0,.48C115,164,117.38,166.67,120.28,166.67Z" transform="translate(-3.74 -87.1)"/><path class="cls-15" d="M151.71,166.67c2.89,0,5.23-2.65,5.23-5.91,0-.16,0-.32,0-.48H146.49c0,.16,0,.32,0,.48C146.47,164,148.81,166.67,151.71,166.67Z" transform="translate(-3.74 -87.1)"/><path class="cls-15" d="M162.18,166.67c2.9,0,5.24-2.65,5.24-5.91,0-.16,0-.32,0-.48H157a3.87,3.87,0,0,0,0,.48C156.94,164,159.29,166.67,162.18,166.67Z" transform="translate(-3.74 -87.1)"/></svg>