<svg id="Layer_1" data-name="Layer 1" xmlns="http://www.w3.org/2000/svg" viewBox="0 0 206.88 202.27"><defs><style>.cls-1{fill:#57c7db;}.cls-2{fill:#f77170;}.cls-3{fill:#ed625a;}.cls-4{fill:#f8bd33;}.cls-5{fill:#f8ae33;}.cls-6{fill:#ffd649;}.cls-7{fill:#ffe666;}.cls-8{fill:#f75e59;}.cls-9{fill:#7cd4e8;}.cls-10{fill:#eb3b42;}.cls-11,.cls-15{fill:#fff;}.cls-12{opacity:0.29;}.cls-13{fill:#57b5d4;}.cls-14{fill:#f77e7f;}.cls-15{font-size:21px;font-family:AbrilFatface-Regular, Abril Fatface;}.cls-16{letter-spacing:-0.04em;}.cls-17{letter-spacing:-0.04em;}.cls-18{letter-spacing:-0.05em;}.cls-19{letter-spacing:0em;}</style></defs><rect class="cls-1" x="38.04" y="137.77" width="130.84" height="5.76"/><path class="cls-2" d="M18.44,188.7h2.4v58.11H12.46c-.05-.52-.13-1.39-.24-2.52,0-.22,0-.46-.05-.71s-.06-.64-.09-1-.08-.94-.11-1.45c-.13-1.57-.29-3.41-.44-5.47,0-.28,0-.54-.06-.84-.28-3.75-.57-8.19-.86-13.09h0c-.13-2.34-.26-4.78-.37-7.3-.46-9.91.54-16.52,1.6-20.55A6.83,6.83,0,0,1,18.44,188.7Z" transform="translate(-10.12 -45.18)"/><path class="cls-2" d="M20.89,160.54a2.56,2.56,0,0,0-.05.27v24.51c-.46-5.31-.84-10.64-1.11-16-.07-1.27-.13-2.54-.19-3.81l0-.8c-.05-.92-.09-1.84-.11-2.75,0-.39,0-.78,0-1.16h0C19.86,160.71,20.38,160.62,20.89,160.54Z" transform="translate(-10.12 -45.18)"/><path class="cls-3" d="M22.09,168.71c-.42.1-.84.21-1.25.33l-1.09.31h0c-.07-1.27-.13-2.54-.19-3.81l0-.8c-.05-.92-.09-1.84-.11-2.75,0-.39,0-.78,0-1.16a1.32,1.32,0,0,0-.26,0l.26-.06c.51-.11,1-.2,1.54-.28h0c.05.32.09.65.14,1,.12.82.24,1.64.35,2.45.06.4.12.79.17,1.18C21.76,166.33,21.93,167.51,22.09,168.71Z" transform="translate(-10.12 -45.18)"/><path class="cls-4" d="M22.21,165a4.25,4.25,0,0,0-.62.12c-.26,0-.51.08-.75.13l-1.29.28h0l0-.8c-.05-.92-.09-1.84-.11-2.75,0-.39,0-.78,0-1.16a1.32,1.32,0,0,0-.26,0l.26-.06c-.07-1.62-.1-3.22-.14-4.84,0-.12,0-.25,0-.38.53-.13,1.07-.24,1.61-.34a.53.53,0,0,0,0,.12,42.91,42.91,0,0,0,.91,5.93c.12.63.22,1.27.32,1.88l.06.47h0c0,.14,0,.27,0,.41Q22.2,164.54,22.21,165Z" transform="translate(-10.12 -45.18)"/><path class="cls-5" d="M22.21,165a4.25,4.25,0,0,0-.62.12c-.26,0-.51.08-.75.13l-1.29.28h0l0-.8c-.05-.92-.09-1.84-.11-2.75.48-.14,1-.29,1.44-.42l.23-.07.66-.19c.12.63.22,1.27.32,1.88l.06.47h0c0,.14,0,.27,0,.41Q22.2,164.54,22.21,165Z" transform="translate(-10.12 -45.18)"/><rect class="cls-2" x="33.9" y="143.52" width="140.29" height="58.75"/><path class="cls-6" d="M180.79,119.36a90.12,90.12,0,0,0-133.24,0l-8.15-7.81a101.12,101.12,0,0,1,149.54,0Z" transform="translate(-10.12 -45.18)"/><path class="cls-7" d="M180.79,115.7a90.12,90.12,0,0,0-133.24,0l-5.46-1.3c19.59-21.3,42.12-31.79,70.74-31.79s52.49,8.88,72.09,30.18Z" transform="translate(-10.12 -45.18)"/><path class="cls-6" d="M126.49,59.88l-9.83-13.43a3.06,3.06,0,0,0-5,0l-9.84,13.43A6.71,6.71,0,0,1,93.44,62l-9.5-4.72a3.14,3.14,0,0,0-4.11,4.3L90.21,82.1h47.92l10.38-20.55a3.14,3.14,0,0,0-4.11-4.3L134.9,62A6.71,6.71,0,0,1,126.49,59.88Z" transform="translate(-10.12 -45.18)"/><path class="cls-7" d="M123.17,65.81,116,58.13a2.54,2.54,0,0,0-3.63,0l-7.19,7.68A5.75,5.75,0,0,1,99,67l-6.94-2.69c-2-.76-4,.91-3,2.46l5.09,7.87a8.77,8.77,0,0,0,7.39,3.87h25.22a8.77,8.77,0,0,0,7.39-3.87l5.09-7.87c1-1.55-1-3.22-3-2.46L129.32,67A5.77,5.77,0,0,1,123.17,65.81Z" transform="translate(-10.12 -45.18)"/><path class="cls-2" d="M51.43,143.52c0,1.8,0,3.59,0,5.38,0,1.51,0,3-.07,4.53q-.3,14.76-1.48,29.51-.24,2.88-.5,5.76H21.13c-.11-1.13-.2-2.25-.29-3.38-.46-5.31-.84-10.64-1.11-16-.07-1.27-.13-2.54-.19-3.81l0-.8c-.05-.92-.09-1.84-.11-2.75,0-.39,0-.78,0-1.16h0c-.07-1.62-.1-3.22-.14-4.84,0-.12,0-.25,0-.38h0q-.32-12.45,0-24.91c.07-3,.18-6,.31-9l.21-4.2.24-4.21h0c.31-5.2.68-10.4,1.16-15.59H49.34c.09,1,.16,1.92.24,2.87.05.39.09.8.11,1.19.14,1.58.26,3.15.38,4.72.1,1.31.18,2.62.27,3.93l.15,2.23h0c.07,1.14.14,2.3.2,3.45s.13,2.36.18,3.54Q51.44,131.58,51.43,143.52Z" transform="translate(-10.12 -45.18)"/><path class="cls-8" d="M57.61,88.87H12.86a6.78,6.78,0,0,0,2.63,5.76,19.29,19.29,0,0,0,5.64,3.07H49.34A19.29,19.29,0,0,0,55,94.63,6.78,6.78,0,0,0,57.61,88.87Z" transform="translate(-10.12 -45.18)"/><polygon class="cls-1" points="2.73 43.69 25.11 12.2 47.49 43.69 2.73 43.69"/><path class="cls-9" d="M23.38,84.92l11.3-20.81c.63-1.27,1.64-1.27,2.27,0l6.57,20.81c.81,1.64,0,4-1.35,4H24.74C23.37,88.87,22.58,86.56,23.38,84.92Z" transform="translate(-10.12 -45.18)"/><path class="cls-1" d="M51.09,161a95.31,95.31,0,0,1-14.53,12.13,95.1,95.1,0,0,1-16,8.33c.19,2.43.37,4.86.59,7.29H23c10.16-4.22,19.18-10.43,27.64-17.59C50.81,167.72,51,164.34,51.09,161Z" transform="translate(-10.12 -45.18)"/><path class="cls-1" d="M19.51,121.7c11.26-4.06,21.12-10.58,30.29-18.25-.15-1.91-.28-3.83-.46-5.75H45.65a76.74,76.74,0,0,1-9.09,7A95.06,95.06,0,0,1,20,113.29C19.8,116.1,19.63,118.9,19.51,121.7Z" transform="translate(-10.12 -45.18)"/><path class="cls-1" d="M51.44,143.52A97,97,0,0,1,36.56,156a95.36,95.36,0,0,1-17,8.75c.12,2.69.28,5.38.44,8.07,11.7-4.3,21.88-11.26,31.37-19.38Q51.43,148.47,51.44,143.52Z" transform="translate(-10.12 -45.18)"/><path class="cls-1" d="M36.56,121.82a95.41,95.41,0,0,1-17.36,8.87c-.07,2.75-.1,5.5-.12,8.25,11.88-4.2,22.2-11.14,31.79-19.3q-.23-4.62-.53-9.23A92.5,92.5,0,0,1,36.56,121.82Z" transform="translate(-10.12 -45.18)"/><path class="cls-1" d="M36.56,138.91a95.69,95.69,0,0,1-17.48,8.91c0,2.72.06,5.44.13,8.16,12-4.28,22.45-11.36,32.15-19.67q-.06-4.8-.23-9.58A96,96,0,0,1,36.56,138.91Z" transform="translate(-10.12 -45.18)"/><path class="cls-1" d="M35.23,60.63a1.52,1.52,0,0,1-1.5-1.53V46.81a1.5,1.5,0,1,1,3,0V59.1A1.51,1.51,0,0,1,35.23,60.63Z" transform="translate(-10.12 -45.18)"/><path class="cls-10" d="M34.16,46.85C37,44.34,41.4,45.12,45,46.21s7.75,2.32,11,.39a12.62,12.62,0,0,1-7.2,7.75,12.26,12.26,0,0,1-10.44-.68,6.35,6.35,0,0,0-2.87-1.17C34.53,52.48,33.78,45.86,34.16,46.85Z" transform="translate(-10.12 -45.18)"/><path class="cls-11" d="M35,63a.88.88,0,0,0-1.13.54c-1.58,3.6-4.57,6.93-4.36,11.1a1.13,1.13,0,0,0,1.67,1c4.2-1.9,4.38-7.66,5.64-11.52A1.1,1.1,0,0,0,35,63Z" transform="translate(-10.12 -45.18)"/><path class="cls-11" d="M28,79.22c-.05,0-.1,0-.16.07-1.58,1.07-2.1,2.77-2.33,4.61-.13,1.09,1.26,1.36,1.9.81A9.33,9.33,0,0,0,30.11,80,1.11,1.11,0,0,0,28,79.22Z" transform="translate(-10.12 -45.18)"/><g class="cls-12"><path class="cls-11" d="M35.21,102c-.94-3.27-4.58-5.43-7.52-3.1-1.62,1.29-2.43,3.37-3,5.39-3.6,12.83-1.63,27.73-1.63,40.94,0,8.11-.77,16.16-.67,24.24.07,5.46.6,14.67,6.75,16.8,3.19,1.1,6.08-.81,6.08-4.21V114.41C35.22,110.54,36.24,105.58,35.21,102Z" transform="translate(-10.12 -45.18)"/></g><path class="cls-11" d="M27.91,130c.76-6.5,1.28-13-.25-19.17a1.06,1.06,0,0,0-1.17-.8c-.11-1.43-2.31-1.44-2.22,0,.15,2.42.11,4.84,0,7.25-.1.47-.21,1-.27,1.45a49.85,49.85,0,0,0-.1,8.64c.3,6.74-.86,13.43-.6,20.18a1.1,1.1,0,0,0,.54,1.78H24a1,1,0,0,0,1.54-.58C27.74,146.46,28.09,137.59,27.91,130Z" transform="translate(-10.12 -45.18)"/><path class="cls-11" d="M26.5,158.84a1,1,0,0,0-.67-1c-.11-1-1.5-1.6-2-.5-1.58,3.29-1.57,8.22-.43,11.66a1.12,1.12,0,0,0,2,.28C27.32,166.25,26.54,162.22,26.5,158.84Z" transform="translate(-10.12 -45.18)"/><ellipse class="cls-2" cx="182.99" cy="98.02" rx="21.39" ry="60.51"/><path class="cls-8" d="M215.49,88.87H170.73a6.78,6.78,0,0,0,2.63,5.76A19.29,19.29,0,0,0,179,97.7h28.21a19.16,19.16,0,0,0,5.64-3.07A6.81,6.81,0,0,0,215.49,88.87Z" transform="translate(-10.12 -45.18)"/><polygon class="cls-1" points="160.61 43.69 182.99 12.2 205.36 43.69 160.61 43.69"/><path class="cls-9" d="M181.26,84.92l11.3-20.81c.62-1.27,1.64-1.27,2.26,0l6.58,20.81c.8,1.64,0,4-1.36,4H182.62C181.25,88.87,180.45,86.56,181.26,84.92Z" transform="translate(-10.12 -45.18)"/><path class="cls-1" d="M209,161a94.83,94.83,0,0,1-14.53,12.13,94.34,94.34,0,0,1-16,8.33c.19,2.43.37,4.86.59,7.29h1.85c10.16-4.22,19.19-10.43,27.64-17.59C208.68,167.72,208.84,164.34,209,161Z" transform="translate(-10.12 -45.18)"/><path class="cls-1" d="M177.38,121.7c11.26-4.06,21.12-10.58,30.3-18.25-.16-1.91-.29-3.83-.47-5.75h-3.68a76.84,76.84,0,0,1-9.1,7,94.71,94.71,0,0,1-16.59,8.56C177.67,116.1,177.51,118.9,177.38,121.7Z" transform="translate(-10.12 -45.18)"/><path class="cls-1" d="M209.31,143.52A97,97,0,0,1,194.43,156a95.6,95.6,0,0,1-17,8.75c.11,2.69.27,5.38.43,8.07,11.7-4.3,21.89-11.26,31.38-19.38C209.26,150.12,209.31,146.82,209.31,143.52Z" transform="translate(-10.12 -45.18)"/><path class="cls-1" d="M194.43,121.82a95.41,95.41,0,0,1-17.36,8.87c-.07,2.75-.09,5.5-.12,8.25,11.88-4.2,22.2-11.14,31.79-19.3-.14-3.08-.33-6.16-.53-9.23A92.5,92.5,0,0,1,194.43,121.82Z" transform="translate(-10.12 -45.18)"/><path class="cls-1" d="M194.43,138.91A95.93,95.93,0,0,1,177,147.82c0,2.72,0,5.44.12,8.16,12-4.28,22.46-11.36,32.15-19.67,0-3.2-.12-6.39-.22-9.58A96.61,96.61,0,0,1,194.43,138.91Z" transform="translate(-10.12 -45.18)"/><path class="cls-1" d="M193.11,60.63a1.51,1.51,0,0,1-1.5-1.53V46.81a1.5,1.5,0,1,1,3,0V59.1A1.51,1.51,0,0,1,193.11,60.63Z" transform="translate(-10.12 -45.18)"/><path class="cls-10" d="M192,46.85c2.89-2.51,7.24-1.73,10.88-.64s7.76,2.32,11,.39a12.64,12.64,0,0,1-7.19,7.75,12.28,12.28,0,0,1-10.45-.68,6.31,6.31,0,0,0-2.86-1.17C192.4,52.48,191.65,45.86,192,46.85Z" transform="translate(-10.12 -45.18)"/><path class="cls-11" d="M192.85,63a.88.88,0,0,0-1.13.54c-1.57,3.6-4.57,6.93-4.36,11.1a1.14,1.14,0,0,0,1.68,1c4.2-1.9,4.38-7.66,5.63-11.52C195.06,62.93,193.59,62.34,192.85,63Z" transform="translate(-10.12 -45.18)"/><path class="cls-11" d="M185.9,79.22a.77.77,0,0,0-.16.07c-1.59,1.07-2.11,2.77-2.33,4.61-.14,1.09,1.25,1.36,1.9.81A9.31,9.31,0,0,0,188,80,1.11,1.11,0,0,0,185.9,79.22Z" transform="translate(-10.12 -45.18)"/><g class="cls-12"><path class="cls-11" d="M193.08,102c-.94-3.27-4.58-5.43-7.51-3.1a10.07,10.07,0,0,0-3,5.39c-3.61,12.83-1.63,27.73-1.63,40.94,0,8.11-.77,16.16-.67,24.24.06,5.46.59,14.67,6.74,16.8,3.19,1.1,6.08-.81,6.09-4.21V114.41C193.09,110.54,194.12,105.58,193.08,102Z" transform="translate(-10.12 -45.18)"/></g><path class="cls-11" d="M185.78,130c.77-6.5,1.28-13-.25-19.17a1.05,1.05,0,0,0-1.16-.8c-.11-1.43-2.32-1.44-2.23,0,.15,2.42.11,4.84,0,7.25a13.28,13.28,0,0,0-.28,1.45,50.86,50.86,0,0,0-.1,8.64c.3,6.74-.85,13.43-.59,20.18a1.1,1.1,0,0,0,.53,1.78h.11a1,1,0,0,0,1.55-.58C185.61,146.46,186,137.59,185.78,130Z" transform="translate(-10.12 -45.18)"/><path class="cls-11" d="M184.37,158.84a1.05,1.05,0,0,0-.66-1c-.11-1-1.5-1.6-2-.5-1.58,3.29-1.57,8.22-.44,11.66a1.12,1.12,0,0,0,2,.28C185.2,166.25,184.41,162.22,184.37,158.84Z" transform="translate(-10.12 -45.18)"/><path class="cls-3" d="M165.49,198c-3,5.68-3.65,12.37-3.63,18.83s.9,12.94,0,19.35H64.09a204.59,204.59,0,0,0,.29-23.36c-.22-5.09-.67-10.31-2.86-14.88s-6.48-8.43-11.46-8.64a1.29,1.29,0,0,1,0,.19v57.72H180.77v-58.9C174.45,187.9,168.52,192.36,165.49,198Z" transform="translate(-10.12 -45.18)"/><path class="cls-1" d="M57.79,214.43c-.13,2.72-.26,5.33-.41,7.82-.08,1.39-.16,2.73-.25,4,0,.82-.09,1.62-.14,2.4-.11,1.72-.23,3.35-.34,4.87,0,.65-.09,1.27-.13,1.88-.33,4.27-.61,7.61-.79,9.67,0,.17,0,.34,0,.48-.07.75-.12,1.29-.16,1.59a.17.17,0,0,1,0,.07s0,0,0,0,0,.17,0,.17h-43l-.06-.64c-.05-.52-.13-1.39-.24-2.52,0-.22,0-.46-.05-.71s-.06-.64-.09-1-.08-.94-.11-1.45c-.13-1.57-.29-3.41-.44-5.47,0-.28,0-.54-.06-.84-.28-3.75-.57-8.19-.86-13.09h0c-.13-2.34-.26-4.78-.37-7.3-.46-9.91.54-16.52,1.6-20.55a6.83,6.83,0,0,1,6.6-5.18H49.59a6.63,6.63,0,0,1,4.27,1.54,6.78,6.78,0,0,1,2.35,3.64C57.25,197.91,58.25,204.52,57.79,214.43Z" transform="translate(-10.12 -45.18)"/><path class="cls-9" d="M38.68,197.67c-.39-2.84-1.71-4.8-3.22-4.8H20.22c-1.51,0-2.84,2-3.23,4.8a121.41,121.41,0,0,0-.77,19.1c.43,17.48,1.11,30.68,1.11,30.68h21s.68-13.2,1.11-30.68A119.82,119.82,0,0,0,38.68,197.67Z" transform="translate(-10.12 -45.18)"/><path class="cls-1" d="M215.22,193.6a6.51,6.51,0,0,0-6.25-4.9H177.25a6.5,6.5,0,0,0-6.25,4.9c-1.08,4-2.14,10.69-1.67,20.83.88,18.81,2.29,33,2.29,33h43s1.38-14.21,2.26-33C217.36,204.29,216.3,197.61,215.22,193.6Z" transform="translate(-10.12 -45.18)"/><path class="cls-13" d="M57.38,222.25c-.08,1.39-.16,2.73-.25,4,0,.82-.09,1.62-.14,2.4-.11,1.72-.23,3.35-.34,4.87,0,.64-.09,1.27-.13,1.88-.33,4.27-.61,7.61-.79,9.67,0,.17,0,.32,0,.48-.07.75-.12,1.29-.16,1.59v.1c0,.11,0,.17,0,.17h-43l-.06-.64c-.05-.52-.13-1.39-.24-2.52,0-.22,0-.47-.05-.71s-.06-.64-.09-1-.08-.94-.11-1.45c-.13-1.57-.29-3.41-.44-5.47,0-.28,0-.54-.06-.84-.28-3.75-.57-8.19-.86-13.09A16.28,16.28,0,0,0,15.05,228a17.54,17.54,0,0,0,1.53,1.2,22,22,0,0,0,4.26,2.35A34.29,34.29,0,0,0,27,233.45a37.29,37.29,0,0,0,11.91.75,27.63,27.63,0,0,0,5.1-1c.55-.16,1.09-.35,1.62-.55A23.5,23.5,0,0,0,50,230.37,21.19,21.19,0,0,0,57.38,222.25Z" transform="translate(-10.12 -45.18)"/><path class="cls-11" d="M16,209.22a6.21,6.21,0,0,0,.71,3.34c.89,1.15,2.45.34,3-1.14a11,11,0,0,0,.32-5,42.6,42.6,0,0,1-.39-7.4c.2-2.47,1-5,2.58-6.17-1.51-1.56-3.8-.82-5.07,1.12s-1.7,4.71-1.69,7.35S15.91,206.59,16,209.22Z" transform="translate(-10.12 -45.18)"/><path class="cls-11" d="M19.84,220.23a7.83,7.83,0,0,0-.23-3.07c-.32-.92-1.08-1.56-1.79-1.31-1,.34-1.38,2.06-1.32,3.5a19.88,19.88,0,0,1,.15,4.28A1.26,1.26,0,0,0,19,224,7.57,7.57,0,0,0,19.84,220.23Z" transform="translate(-10.12 -45.18)"/><path class="cls-11" d="M116.39,184.69H63.66a1.14,1.14,0,0,0,0,2.28h52.73A1.14,1.14,0,0,0,116.39,184.69Z" transform="translate(-10.12 -45.18)"/><path class="cls-11" d="M137,184.69h-8.71a1.14,1.14,0,0,0,0,2.28H137A1.14,1.14,0,0,0,137,184.69Z" transform="translate(-10.12 -45.18)"/><path class="cls-14" d="M150.64,195.66H75.26a5.26,5.26,0,0,0-4.79,7.12c1.94,5.71,2.15,11.83,1.59,18.14a5.18,5.18,0,0,0,5.12,5.62h71.17a5.16,5.16,0,0,0,5.1-5.85,38.71,38.71,0,0,1,2-18.08A5.21,5.21,0,0,0,150.64,195.66Z" transform="translate(-10.12 -45.18)"/><path class="cls-9" d="M198,197.67c-.39-2.84-1.72-4.8-3.23-4.8H179.53c-1.52,0-2.84,2-3.23,4.8a119.82,119.82,0,0,0-.78,19.1c.43,17.48,1.11,30.68,1.11,30.68h21s.69-13.2,1.12-30.68A122.32,122.32,0,0,0,198,197.67Z" transform="translate(-10.12 -45.18)"/><path class="cls-13" d="M214.62,247.45s1-10.41,1.87-25.2a21.82,21.82,0,0,1-11.72,10.36c-5.91,2.24-12.47,2.18-18.63.84a26.63,26.63,0,0,1-12-5.46,16.14,16.14,0,0,1-4.43-6.26c.85,15.06,1.89,25.72,1.89,25.72h43Z" transform="translate(-10.12 -45.18)"/><path class="cls-11" d="M174.51,209.22a6.21,6.21,0,0,0,.71,3.34c.89,1.15,2.44.34,3-1.14a11,11,0,0,0,.32-5,41.64,41.64,0,0,1-.39-7.4c.2-2.47,1-5,2.58-6.17-1.51-1.56-3.8-.82-5.07,1.12s-1.7,4.71-1.7,7.35S174.4,206.59,174.51,209.22Z" transform="translate(-10.12 -45.18)"/><path class="cls-11" d="M178.33,220.23a7.83,7.83,0,0,0-.23-3.07c-.33-.92-1.09-1.56-1.79-1.31-1,.34-1.39,2.06-1.32,3.5a19.88,19.88,0,0,1,.15,4.28,1.26,1.26,0,0,0,2.35.34A7.68,7.68,0,0,0,178.33,220.23Z" transform="translate(-10.12 -45.18)"/><path class="cls-11" d="M40.58,46.56a8.16,8.16,0,0,0-3.33-.35c-1.42.14-1.43,2.41,0,2.28a6.52,6.52,0,0,1,2.74.27C41.36,49.21,42,47,40.58,46.56Z" transform="translate(-10.12 -45.18)"/><path class="cls-11" d="M44.24,46.83a1.14,1.14,0,0,0,0,2.28A1.14,1.14,0,0,0,44.24,46.83Z" transform="translate(-10.12 -45.18)"/><path class="cls-11" d="M198.66,48a8.23,8.23,0,0,0-3.34-.35c-1.42.14-1.43,2.41,0,2.28a6.42,6.42,0,0,1,2.75.27C199.44,50.67,200,48.48,198.66,48Z" transform="translate(-10.12 -45.18)"/><path class="cls-11" d="M202.32,48.3a1.14,1.14,0,0,0,0,2.28A1.14,1.14,0,0,0,202.32,48.3Z" transform="translate(-10.12 -45.18)"/><path class="cls-11" d="M102.38,82.79c-5.7-.09-11,1.75-16.47,3.35a86.44,86.44,0,0,0-18.63,7.61,1.14,1.14,0,0,0,1.13,2,73,73,0,0,1,16.43-6.93c5.78-1.61,11.46-3.82,17.54-3.72A1.14,1.14,0,0,0,102.38,82.79Z" transform="translate(-10.12 -45.18)"/><path class="cls-11" d="M62.88,95.92c-2,1.86-4.3,3.38-6.4,5.12-1.12.92.47,2.52,1.57,1.61,2.11-1.75,4.39-3.26,6.41-5.12C65.52,96.54,63.94,94.94,62.88,95.92Z" transform="translate(-10.12 -45.18)"/><path class="cls-11" d="M158.65,92.22c-2.3-.6-4.12-2.4-6.14-3.58a1.13,1.13,0,0,0-1.13,2c2.21,1.3,4.16,3.16,6.68,3.81A1.14,1.14,0,0,0,158.65,92.22Z" transform="translate(-10.12 -45.18)"/><path class="cls-11" d="M95.28,72.54a1.58,1.58,0,0,0,.07-.66c-.5-3.67-4.17-6.55-7.34-7.79a.86.86,0,0,0-.67,0,1,1,0,0,0-.68,1.61c.06.1.14.19.21.29,1.41,3.35,3.91,7.38,7.41,8.48C95.5,74.89,96.09,73.23,95.28,72.54Z" transform="translate(-10.12 -45.18)"/><path class="cls-11" d="M85.62,60.38c-.44-.35-.88-.7-1.34-1-1.17-.85-2.29,1.13-1.12,2,.3.21.6.43.89.67C85.16,62.9,86.74,61.3,85.62,60.38Z" transform="translate(-10.12 -45.18)"/><path class="cls-11" d="M114.74,50.07c.54-1-.83-2.34-1.73-1.34-2.43,2.69-5.67,6.56-5.28,10.51a11.83,11.83,0,0,0-.06,1.66,1.11,1.11,0,0,0,2.21.1c2.6-2.83,4.82-6.43,5-10.39A.94.94,0,0,0,114.74,50.07Z" transform="translate(-10.12 -45.18)"/><path class="cls-11" d="M106.84,64a1,1,0,0,0-.79.77c-.18.62-.39,1.22-.57,1.84a1.1,1.1,0,0,0,1.46,1.33,1,1,0,0,0,1-.8,17.52,17.52,0,0,1,.57-1.91A1.08,1.08,0,0,0,106.84,64Z" transform="translate(-10.12 -45.18)"/><path class="cls-11" d="M144.14,62.13a1.22,1.22,0,0,0-1.67-1.36c-2.75,1.28-6.84,3.57-7.46,6.91a1.15,1.15,0,0,0,1.08,1.44c3.65-.13,5.26-3.86,7.73-6A.93.93,0,0,0,144.14,62.13Z" transform="translate(-10.12 -45.18)"/><text class="cls-15" transform="translate(56.35 177.4)">R<tspan class="cls-16" x="15.04" y="0">E</tspan><tspan x="27.3" y="0">VI</tspan><tspan class="cls-17" x="49.14" y="0">E</tspan><tspan class="cls-18" x="61.4" y="0">W</tspan><tspan class="cls-19" x="81.67" y="0">S</tspan></text></svg>