<svg id="Layer_1" data-name="Layer 1" xmlns="http://www.w3.org/2000/svg" viewBox="0 0 24 22"><defs><style>.cls-1{fill:#c94024;}.cls-2{fill:#f3aa4b;}.cls-3{fill:#9b240b;}.cls-4{fill:#f39c12;}.cls-5{fill:#c0392b;}.cls-6{fill:#bdc3c7;}.cls-7{fill:#ecf0f1;}.cls-8{fill:#e74c3c;}.cls-9{fill:#ffff9f;}.cls-10{fill:#fcc56b;}.cls-11{fill:#ac351c;}.cls-12{fill:#7f533e;}</style></defs><path class="cls-1" d="M0,22H24l-4-6H4L0,22" transform="translate(0 -1)"/><rect class="cls-2" x="2" y="3" width="20" height="17"/><rect class="cls-3" x="4" y="10" width="9" height="9"/><rect class="cls-3" x="14" y="11" width="6" height="9"/><rect class="cls-4" x="2" y="8" width="20" height="4"/><rect class="cls-3" x="14" y="10" width="6" height="1"/><rect class="cls-3" x="4" y="10" width="9" height="2"/><path class="cls-5" d="M0,8V9.5A1.52,1.52,0,0,0,1.5,11,1.52,1.52,0,0,0,3,9.5V8H0Z" transform="translate(0 -1)"/><path class="cls-6" d="M3,8V9.5a1.5,1.5,0,0,0,3,0V8H3Z" transform="translate(0 -1)"/><path class="cls-5" d="M6,8V9.5a1.5,1.5,0,0,0,3,0V8H6Z" transform="translate(0 -1)"/><path class="cls-6" d="M9,8V9.5a1.5,1.5,0,0,0,3,0V8H9Z" transform="translate(0 -1)"/><path class="cls-5" d="M12,8V9.5a1.5,1.5,0,0,0,3,0V8H12Z" transform="translate(0 -1)"/><path class="cls-6" d="M15,8V9.5a1.5,1.5,0,0,0,3,0V8H15Z" transform="translate(0 -1)"/><path class="cls-5" d="M18,8V9.5a1.5,1.5,0,0,0,3,0V8H18Z" transform="translate(0 -1)"/><path class="cls-6" d="M21,8V9.5a1.5,1.5,0,0,0,3,0V8H21Z" transform="translate(0 -1)"/><path class="cls-7" d="M10,4h2V8H9Z" transform="translate(0 -1)"/><path class="cls-8" d="M12,4h2l1,4H12Z" transform="translate(0 -1)"/><path class="cls-7" d="M5,4H8L6,8H3Z" transform="translate(0 -1)"/><path class="cls-8" d="M8,4h2L9,8H6Z" transform="translate(0 -1)"/><path class="cls-7" d="M16,4H14l1,4h3Z" transform="translate(0 -1)"/><path class="cls-8" d="M19,4H16l2,4h3Z" transform="translate(0 -1)"/><path class="cls-8" d="M2,4H5L3,8H0Z" transform="translate(0 -1)"/><path class="cls-7" d="M22,4H19l2,4h3Z" transform="translate(0 -1)"/><rect class="cls-9" x="15" y="12" width="4" height="8"/><rect class="cls-3" x="14" y="15" width="5" height="1"/><rect class="cls-3" x="19" y="11" width="1" height="1"/><rect class="cls-10" x="15" y="11" width="4" height="1"/><rect class="cls-3" x="14" y="11" width="1" height="1"/><rect class="cls-9" x="5" y="11" width="7" height="7"/><rect class="cls-3" x="4" y="14" width="9" height="1"/><rect class="cls-3" x="8" y="11" width="1" height="7"/><path class="cls-3" d="M1,4H23L19.33,2H4.67L1,4" transform="translate(0 -1)"/><rect class="cls-3" x="8" y="11" width="1" height="1"/><path class="cls-1" d="M1,3H23L19.33,1H4.67L1,3" transform="translate(0 -1)"/><rect class="cls-11" x="1" y="2" width="22" height="1"/><rect class="cls-12" x="15" y="17" width="4" height="3"/><rect class="cls-11" y="21" width="24" height="1"/><path class="cls-12" d="M5,12v1H8V12Zm4,0v1h3V12Z" transform="translate(0 -1)"/><path class="cls-12" d="M5,18v1H8V18Zm4,0v1h3V18Z" transform="translate(0 -1)"/><path class="cls-5" d="M2,4,1.5,5h3L5,4ZM7,4,6.75,5h3L10,4Zm5,0V5h2.25L14,4Zm4,0,.5,1h3L19,4Z" transform="translate(0 -1)"/><path class="cls-6" d="M5,4,4.5,5h3L8,4Zm5,0L9.75,5H12V4Zm4,0,.25,1H16.5L16,4Zm5,0,.5,1h3L22,4Z" transform="translate(0 -1)"/></svg>