<svg id="Layer_1" data-name="Layer 1" xmlns="http://www.w3.org/2000/svg" viewBox="0 0 64.83 64.83"><defs><style>.cls-1{fill:none;stroke:#36343b;stroke-miterlimit:10;stroke-width:2px;}</style></defs><path class="cls-1" d="M57,18a6,6,0,0,1-5,2,7.79,7.79,0,0,1-8-8,6,6,0,0,1,2-5L40,1,1,40l6,6a6,6,0,0,1,5-2,7.79,7.79,0,0,1,8,8,6,6,0,0,1-2,5l6,6L63,24Z" transform="translate(0.41 0.41)"/><line class="cls-1" x1="26.41" y1="15.41" x2="30.41" y2="19.41"/><line class="cls-1" x1="45.41" y1="34.41" x2="49.41" y2="38.41"/><line class="cls-1" x1="32.41" y1="21.41" x2="36.41" y2="25.41"/><line class="cls-1" x1="39.41" y1="28.41" x2="43.41" y2="32.41"/></svg>