<svg id="Layer_1" data-name="Layer 1" xmlns="http://www.w3.org/2000/svg" viewBox="0 0 48 48"><defs><style>.cls-1{fill:#fff;fill-rule:evenodd;}</style></defs><path class="cls-1" d="M24,0A24,24,0,1,0,48,24,24,24,0,0,0,24,0Zm-.67,20.34,0-.83a4.86,4.86,0,0,1,3.27-4.88,5.73,5.73,0,0,1,2.94-.07,6.77,6.77,0,0,1,1.43.74l.82.56.91-.28A10.65,10.65,0,0,0,34.13,15c.28-.15.53-.24.53-.19a5,5,0,0,1-1.14,1.82c-.7.76-.5.83.92.32.86-.29.88-.29.71,0A11.12,11.12,0,0,1,34,18.29c-.94.93-1,1-1,1.81a17.61,17.61,0,0,1-1.14,5.09,14.69,14.69,0,0,1-5.59,6.57,14.19,14.19,0,0,1-11,1.26A13,13,0,0,1,12,31.52a4.84,4.84,0,0,1,1.38-.13,9.57,9.57,0,0,0,4.5-1.26l.9-.54-1-.35a5.09,5.09,0,0,1-3.14-2.78c-.1-.36-.07-.38.88-.38h1l-.82-.39a5.38,5.38,0,0,1-2.3-2.17,6.07,6.07,0,0,1-.61-2.27,2,2,0,0,1,.79.18c1.16.43,1.31.32.64-.39a4.87,4.87,0,0,1-1-5l.28-.82,1.11,1.1a13.69,13.69,0,0,0,8,3.94Z" transform="translate(0 0)"/></svg>